<svg width="249" height="79" viewBox="0 0 249 79" fill="none" xmlns="http://www.w3.org/2000/svg"><g clip-path="url(#clip0_656_17481)"><path d="M1.389 4.32v.748c.016-.07.024-.276 0-.748z" fill="#DF0A20"/><path d="M77.852 28.101s-.032-.03-.047-.03c.015.061.03.085.046.03z" fill="#DF0A20"/><path d="M1.476 13.079c0-.118.008-.229.016-.339-.048-.07-.04.26-.016.339z" fill="#DF0A20"/><path d="M1.643 57.957c.071.244.301-.204.349 0l-.135-2.4c.095-.74.262-.936.35-.543.047-1.322-.144-3.572.094-3.572-.04-1.708-.126.543-.198.692v-.15l.016 1.81c-.278.197.071-2.053-.198-2.345-.508-.283-.207-2.55-.286-3.816l-.04 1.33v11.37c0-.644.151-1.754.056-2.368m.674-52.37v.433s-.016.055-.024.102l.024-.535zm.024 42.95l-.048-.723c.016.07-.285.133.048.196v.528zm75.473 24.246c-.04-1.338-.064-2.62-.024-3.817-.047-.59-.119-2.345-.262-1.81-.016.732-.198.835-.31.787-.158-2.785.263-1.369.207-3.234.27-.59.183 1.173.42 1.173l-.174-2.692c.087-1.519-.071-3.037.064-4.36-.032.59.206.19.103 1.173-.016-.15-.032-.047-.048-.197-.024 2.11.111 1.338.183 2.889-.064-1.724-.12-3.92-.072-5.383-.182.346-.08-1.267-.198-1.708l.016-.094c-.08 0-.135-.976-.159-1.275l.238-.393c-.032-.685-.119.196-.15-.488-.056-.976-.08-4.454.166-4.698-.016-1.18-.159-1.52-.127-2.739.063.095.087.394.119.433.048-2.589-.032-5.776.111-8.223-.063-2-.095-3.715-.262-4.982.016.535-.04 2.101-.174 1.126-.096-.536-.064-1.37-.104-2.196.127.197.12-2.109.207-.44.27-.418-.056-3.589.214-3.558-.08-.385-.032-2.754-.182-3.635.119-.197.079.983.158.983l-.04-1.369h.08c.071-1.574-.262-2.148-.31-3.376l.032.197-.047-.755.214 1.015c-.032-1.322-.222-1.983-.27-3.455l.072-.134-.072-.881c.016.15.048.205.063.102-.206-.834-.126-2.738-.301-3.525.032-.583.286-1.078.111-1.865l.254.15c.032 1.959-.174.731-.087 2.785.325-1.519.285-5.776.262-8.617-.048-.606-.056-1.322-.064-2.062V.08a75.19 75.19 0 00-2.817.039 9.58 9.58 0 00-.904.063c-.19.031-.341.063-.452.11l.245-.15-3.895-.125c-3.309.063-6.713-.055-9.228.157l-.69-.126c-2.61.433-8.88.181-10.6.693-1.477-.118.443-.197.594-.292-1.087-.039-2.912.3-3.951.063 0-.078 1.531-.07.84-.126-.793-.149-1.134.15-2.022-.015.396.157-1.429.33-2.762.362.164 0 .28.008.35.023.19.118-.794.095-1.341.11 0 0 .047-.031.198-.047-6.855.197-14.695.291-21.907.15l1.325-.11c-1.032.086-2.864.023-3.452 0l.151-.016c-1.928-.236-2.174.236-3.658-.04l.294-.023C11.68.779 10.299.527 8.03.66 6.245.566 6.443.448 5.213.338c-1.039 0-1.523.15-1.579.181l.5.016c.54.142-1.087.142-1.825.205C1.802.74.754.858.754.858s-.119 1.7-.143 2.66c.016-.488.127.834.207-.048.031.685-.08 2.542-.222 1.81.047.834.142 2.4.182 3.085-.119.197-.048-.59-.103-.929l.071 2.4.127-.684c-.095 1.763.215 2.888.31 4.304C.976 13.26.96 12.087.857 11.16c-.246.889.127.582.096 2.053-.04.197-.088.252-.151.15l.182 1.172c-.023.339-.071.15-.079 0 .222 2.007.294-.047.38 2.645.104-1.621-.142-1.377-.126-2.739.15-.787.262 1.558.349 1.952-.048 1.322-.357 1.471-.19 3.132-.096-1.173-.19-.048-.199-1.708-.103-.929-.095.488-.206.685.04.44.214-.292.19.928l-.031-.047.222 1.999c-.111 1.865.246 4.202 0 5.485l.214-.3c.016 1.173.024 2.841.071 3.668-.127-.19-.134-.976-.182-1.81-.04 2.109.095 3.966.27 5.382.15-1.03.143-1.18.246-2.156.301 1.37-.19 1.621-.04 3.384-.206.047-.182-.535-.38-.094.142.732.11 1.96.237 2.793-.206.44-.38-.338-.397-2.148.183-1.37-.134-2.888.04-4.013l-.135.684c-.063-1.37-.024-2.203-.127-3.376l-.444.047-.682-.582v.638c0-.441.166-1.755.158-2.149.032 1.96.603 2.101.786 3.03-.016 1.763-.262 2.455-.087 3.628-.104.094-.143 1.078-.238.29-.056-.975.103-1.66-.04-1.762 0 1.031-.064.637-.04 2.203.19.3.373 1.464.524 2.59a29.57 29.57 0 01.04 3.627c-.016-1.172-.199-2.353-.334-2.054.19.685-.15 2.298.111 1.952-.016 1.37-.008 3.675-.238 3.825-.087-1.299.056-2.55 0-3.652 0 .3-.063.598-.119.417l.024-1.62c-.111 1.219-.42.983-.397 2.549.016-.095-.166-.3-.166-.15v1.275l.024.047c.095 1.173-.048 3.431.103 5.58l.016-.197c-.04 1.715.404 1.857.452 3.714-.095-.535-.175-.291-.27-.197.103.929-.063 1.417-.119 2.353.127-1.078.222.732.294-.055.206-.055.214 1.858.19 2.841-.27.583-.15-3.037-.428-1.566-.024.976.127 1.22.182.535-.032 1.22-.063 3.085-.23 3.966.206 1.464.095 2.046.357 2.983-.008-.787-.206-.826-.095-1.81l.198 1.078C.66 63.67.484 64.804.461 65.78l-.088-1.031.032.047c-.087-.394-.04-1.716-.182-1.566.182.928 0 1.668.135 2.888l-.032-.047c.158 2.148-.302 3.722.08 5.091 0-.393.142-1.18.213-.928-.095.495-.063 1.81-.174 1.762l-.04-.44c-.032 1.227-.047 1.959-.008 2.4.135.338.238 0 .318.873-.04 1.842-.12 1.55-.207 1-.087-.535-.166-1.307-.23.126l.111 2.888.92-.032.77.126 2.127.024c.389 0 .77-.008 1.15-.016.69-.024 1.365-.063 2.04-.102 1.356-.087 2.737-.19 4.34-.19.047.213-2.27.3-3.055.308.992.18 2.42-.071 3.753.063 1.238.031 2.166-.158 1.976-.268 1.523-.07 1.086.126 1.277.157.492-.228 2.42-.15 3.65-.196l.055.126 1.92-.158c-.491-.016-.047-.126-.047-.204h.492c-1.88-.339-4.237.26-6.165-.142.587-.047-.199-.118.388-.165.492.015.596.031.643.078.294-.102 1.087-.196.048-.188.047-.268 2.118-.205 3.547-.3 1.134.174-1.183.26-1.77.386.54-.016.992-.134 1.777-.07l-.19.204c1.968-.11.54-.173.984-.37.54-.26 1.777.008 2.317 0l-.587.047c1.531.087 1.872-.126 3.253-.11l.65.157c-1.73-.204-2.118.284-3.11.181 2.515.19-.54.417-1.325.59 1.087-.039 2.07-.015 2.666.095 1.579-.268 3.309.094 4.832-.212.841.039-.738.141.15.149a61.875 61.875 0 005.079-.134c.889 0 .738.095.992.181 4.292.118 5.967-.362 10.656-.244l-.69.11c.983.024 1.824.063 2.316-.086 1.238.346 4.198-.213 5.777.157 2.07.071 2.174-.236 3.8-.29 0 .078-.492.227.35.259 5.323-.126 10.116-.15 15.98-.213-.048.032-.342.055-.493.063 1.445-.008 2.88-.023 4.317-.031l-.072-3.73c-.023-.693-.047-1.377-.071-2.046" fill="#DF0A20"/><path d="M77.98 62.71c0 .111 0 .237.016.347 0-.126-.008-.244-.015-.346z" fill="#DF0A20"/><path d="M1.477 13.079v.196l.04-.244c-.017.079-.025.079-.04.047z" fill="#DF0A20"/><path d="M42.45 57.454c2.213-4.91 4.419-9.829 6.633-14.731a7.218 7.218 0 00-.754-7.216l-2.785-3.801c7.633-.787 15.266-1.574 22.899-2.37a30.47 30.47 0 011.603 15.322c-5.507.567-11.021 1.142-16.536 1.708 3.253 4.454 6.506 8.892 9.752 13.354a31.013 31.013 0 01-12.577 9.042c-2.753-3.761-5.498-7.53-8.251-11.292" fill="#fff"/><path d="M39.823 20.114a4.36 4.36 0 00.46 4.375 2111.51 2111.51 0 013.753 5.146l6.371-.66a4.435 4.435 0 003.595-2.582c1.07-2.368 4.657-10.19 4.657-10.19-3.99-3.848-8.633-5.989-14.179-6.28 0 0-3.586 7.822-4.65 10.183" fill="#fff"/><path d="M32.864 67.943c-3.737-.857-6.99-2.297-10.124-4.485l7.625-16.935c-6.197.637-12.394 1.283-18.599 1.92-1.118-3.643-1.491-7.16-1.15-10.938 6.197-.638 12.393-1.283 18.59-1.92-3.65-5.005-7.315-10.01-10.965-15.015 2.61-2.786 5.498-4.855 8.982-6.453 5.84 7.988 11.671 15.967 17.511 23.954.603.835.714 1.92.294 2.85L32.864 67.935v.007zm13.663-31.162c-6.18-8.46-12.362-16.92-18.55-25.386A31.12 31.12 0 0015.4 20.436c3.254 4.454 6.499 8.9 9.76 13.355-5.515.566-11.03 1.133-16.536 1.707a30.512 30.512 0 001.611 15.314c5.514-.567 11.021-1.141 16.535-1.708l-6.784 15.054a31.156 31.156 0 0014.18 6.28L47.05 41.809a5.008 5.008 0 00-.532-5.028" fill="#fff"/><path d="M96.626 11.733h-5.237V5.768h5.237c1.928 0 2.991 1.054 2.991 2.967 0 2.022-.976 2.998-2.991 2.998zM96.689.582h-9.688a.971.971 0 00-.976.968v22.955c0 .535.437.968.976.968h3.404c.54 0 .976-.433.976-.968v-7.586h5.07c5.332 0 8.649-3.14 8.649-8.184 0-5.045-3.301-8.153-8.41-8.153z" fill="#DF0A20"/><path d="M112.979 5.768h5.768c1.103 0 2.96.354 2.96 2.738 0 1.795-1 2.707-2.96 2.707h-5.768V5.768zm14.179 2.636c0-4.753-3.301-7.822-8.411-7.822h-10.148a.971.971 0 00-.976.968v22.955c0 .535.436.968.976.968h3.404a.972.972 0 00.976-.968v-8.113h3.642l4.324 8.546c.167.33.5.535.873.535h4.015a.972.972 0 00.976-.968.924.924 0 00-.199-.583l-4.142-8.215c3-1.18 4.69-3.785 4.69-7.295" fill="#DF0A20"/><path d="M146.947 20.192H135.99v-5.311h5.673a.972.972 0 00.976-.968v-3.345a.972.972 0 00-.976-.968h-5.673V5.87h10.465c.54 0 .976-.433.976-.968V1.55a.971.971 0 00-.976-.968h-14.909a.972.972 0 00-.976.968v22.955c0 .535.437.968.976.968h15.409c.54 0 .976-.433.976-.968V21.16a.971.971 0 00-.976-.968" fill="#DF0A20"/><path d="M172.568.582h-3.706a.977.977 0 00-.904.598l-5.094 12.229c-.119.291-.373.897-.659 1.598-.182-.441-.381-.89-.563-1.323l-5.308-12.512a.968.968 0 00-.897-.59h-3.57a.971.971 0 00-.976.968v22.955c0 .535.436.968.976.968h3.269a.972.972 0 00.976-.968V13.378l5.101 11.866a.98.98 0 001.794.008l5.173-11.882v11.135c0 .535.436.968.976.968h3.404a.972.972 0 00.976-.968V1.55a.972.972 0 00-.976-.968" fill="#DF0A20"/><path d="M182.223.582h-3.476a.972.972 0 00-.976.968v22.955c0 .535.437.968.976.968h3.476a.972.972 0 00.976-.968V1.55a.972.972 0 00-.976-.968z" fill="#DF0A20"/><path d="M203.812 20.192h-10.957v-5.311h5.665c.54 0 .976-.433.976-.968v-3.345a.971.971 0 00-.976-.968h-5.665V5.87h10.465c.54 0 .976-.433.976-.968V1.55a.971.971 0 00-.976-.968h-14.909a.97.97 0 00-.975.968v22.955a.97.97 0 00.975.968h15.409c.54 0 .976-.433.976-.968V21.16a.971.971 0 00-.976-.968" fill="#DF0A20"/><path d="M213.127 5.768h5.769c1.103 0 2.959.354 2.959 2.738 0 1.795-.992 2.707-2.959 2.707h-5.769V5.768zm14.187 2.636c0-4.753-3.301-7.822-8.418-7.822h-10.149a.972.972 0 00-.976.968v22.955c0 .535.437.968.976.968h3.404c.54 0 .976-.433.976-.968v-8.113h3.642l4.324 8.546c.167.33.5.535.873.535h4.015c.54 0 .976-.433.976-.968a.923.923 0 00-.198-.583l-4.142-8.215c2.991-1.18 4.689-3.785 4.689-7.295" fill="#DF0A20"/><path d="M247.096 20.192h-10.958v-5.311h5.665c.54 0 .976-.433.976-.968v-3.345a.971.971 0 00-.976-.968h-5.665V5.87h10.466a.972.972 0 00.976-.968V1.55a.972.972 0 00-.976-.968h-14.909a.971.971 0 00-.976.968v22.955c0 .535.436.968.976.968h15.408c.54 0 .976-.433.976-.968V21.16a.971.971 0 00-.976-.968" fill="#DF0A20"/><path d="M105.933 31.044h-3.737a1.05 1.05 0 00-1.056 1.047v14.48c0 5.272-2.69 5.878-4.72 5.878-1.151 0-4.65 0-4.65-6.13V32.082a1.05 1.05 0 00-1.056-1.047h-3.737a1.05 1.05 0 00-1.055 1.047v14.346c0 7.507 3.8 11.82 10.418 11.82 6.617 0 10.632-4.282 10.632-11.75V32.091a1.05 1.05 0 00-1.055-1.047" fill="#DF0A20"/><path d="M116.962 36.631h6.212c1.191 0 3.19.386 3.19 2.951 0 1.936-1.071 2.912-3.19 2.912h-6.212V36.63zm15.282 2.841c0-5.115-3.563-8.428-9.07-8.428h-10.933c-.58 0-1.048.464-1.048 1.039v24.725c0 .575.468 1.047 1.048 1.047h3.665a1.05 1.05 0 001.056-1.047v-8.743h3.927l4.658 9.207c.182.355.539.575.936.575h4.332a1.05 1.05 0 001.056-1.047c0-.236-.08-.456-.215-.63l-4.467-8.852c3.23-1.267 5.047-4.077 5.047-7.862" fill="#DF0A20"/><path d="M155.199 43.234h-7.871a1.05 1.05 0 00-1.055 1.04v3.564a1.05 1.05 0 001.055 1.047h2.936c-.238 1.503-1.175 3.564-4.539 3.564-5.126 0-5.681-5.595-5.681-8.003 0-2.408.555-8.003 5.681-8.003 2.063 0 3.15.614 4.309 2.448a1.05 1.05 0 001.444.33l3.277-2.014c.476-.292.642-.913.365-1.401-1.952-3.423-5.11-5.162-9.395-5.162-6.935 0-11.592 5.547-11.592 13.794s4.657 13.795 11.592 13.795c6.395 0 10.529-4.36 10.529-11.111v-2.864c0-.575-.468-1.04-1.055-1.04" fill="#DF0A20"/><path d="M177.105 52.173h-11.806v-5.72h6.109a1.05 1.05 0 001.056-1.048v-3.604a1.05 1.05 0 00-1.056-1.046h-6.109v-4.022h11.275a1.05 1.05 0 001.055-1.046v-3.604c0-.575-.468-1.04-1.055-1.04h-16.068a1.05 1.05 0 00-1.055 1.04v24.725a1.05 1.05 0 001.055 1.047h16.599a1.05 1.05 0 001.056-1.047v-3.604c0-.575-.468-1.039-1.056-1.039" fill="#DF0A20"/><path d="M201.36 31.044h-3.634c-.579 0-1.055.464-1.055 1.039v12.756c0 .464 0 1.165.008 1.936a2.467 2.467 0 00-.095-.15L187.11 31.54a1.05 1.05 0 00-.897-.488h-3.808c-.579 0-1.055.464-1.055 1.039v24.725a1.05 1.05 0 001.055 1.047h3.634c.579 0 1.055-.473 1.055-1.047v-12.82c0-.471 0-1.18-.008-1.95l9.823 15.329c.191.299.532.48.889.48h3.562c.58 0 1.056-.472 1.056-1.047V32.083c0-.575-.468-1.04-1.056-1.04z" fill="#DF0A20"/><path d="M226.387 51.607l-3.094-2.046a1.037 1.037 0 00-.801-.15 1.037 1.037 0 00-.667.465c-1.174 1.834-2.499 2.589-4.594 2.589-5.094 0-5.641-5.595-5.641-8.003 0-2.408.547-8.003 5.641-8.003 2.039 0 3.079.606 4.277 2.479.309.488.952.63 1.444.33l3.309-2.046c.476-.299.634-.913.357-1.4-1.952-3.424-5.11-5.163-9.395-5.163-6.935 0-11.592 5.548-11.592 13.795s4.657 13.795 11.592 13.795c4.134 0 7.506-1.865 9.49-5.257a1.042 1.042 0 00-.326-1.393" fill="#DF0A20"/><path d="M247.777 52.173h-11.806v-5.72h6.109a1.05 1.05 0 001.056-1.048v-3.604c0-.574-.469-1.046-1.056-1.046h-6.109v-4.022h11.275a1.05 1.05 0 001.055-1.046v-3.604c0-.575-.468-1.04-1.055-1.04h-16.068a1.05 1.05 0 00-1.055 1.04v24.725a1.05 1.05 0 001.055 1.047h16.599c.579 0 1.056-.465 1.056-1.047v-3.604c0-.575-.469-1.039-1.056-1.039" fill="#DF0A20"/><path d="M88.724 62.954h-2.032a.567.567 0 00-.57.567v13.433c0 .314.253.566.57.566h2.032a.567.567 0 00.57-.566V63.52a.567.567 0 00-.57-.567z" fill="#DF0A20"/><path d="M102.632 62.954h-1.976a.567.567 0 00-.571.567V71.5a.594.594 0 00-.055-.086l-5.15-8.192a.57.57 0 00-.484-.268h-2.07a.567.567 0 00-.572.567v13.433c0 .314.254.566.571.566h1.976a.567.567 0 00.571-.566v-8.019l5.34 8.325c.103.166.286.26.484.26h1.936a.567.567 0 00.571-.566V63.52a.567.567 0 00-.571-.567z" fill="#DF0A20"/><path d="M115.232 62.954h-9.926a.567.567 0 00-.572.567v1.975c0 .315.254.567.572.567h3.372v10.883c0 .314.254.566.571.566h2.031a.567.567 0 00.572-.566V66.063h3.372a.567.567 0 00.571-.567V63.52a.567.567 0 00-.571-.567" fill="#DF0A20"/><path d="M126.913 74.428h-6.411v-3.109h3.316a.567.567 0 00.572-.566v-1.96a.567.567 0 00-.572-.566h-3.316v-2.188h6.125a.566.566 0 00.571-.567v-1.96a.566.566 0 00-.571-.566h-8.72a.567.567 0 00-.571.567v13.433c0 .315.254.566.571.566h9.014a.567.567 0 00.571-.566v-1.96a.567.567 0 00-.571-.566" fill="#DF0A20"/><path d="M132.363 65.984h3.372c.642 0 1.73.204 1.73 1.597 0 1.047-.58 1.582-1.73 1.582h-3.372v-3.18zm8.299 1.542c0-2.778-1.936-4.58-4.927-4.58H129.8a.566.566 0 00-.571.567v13.433c0 .315.253.566.571.566h1.991a.567.567 0 00.572-.566V72.2h2.134l2.531 5.005a.575.575 0 00.508.314h2.349a.567.567 0 00.46-.905l-2.428-4.808c1.753-.692 2.745-2.211 2.745-4.273" fill="#DF0A20"/><path d="M153.517 62.954h-1.976a.567.567 0 00-.571.567V71.5a.528.528 0 00-.056-.086l-5.141-8.192a.57.57 0 00-.484-.268h-2.071a.567.567 0 00-.572.567v13.433c0 .314.254.566.572.566h1.975a.567.567 0 00.572-.566v-8.019l5.332 8.325a.56.56 0 00.484.26h1.936a.567.567 0 00.571-.566V63.52a.567.567 0 00-.571-.567z" fill="#DF0A20"/><path d="M163.41 71.398h-2.571l.817-2.322a70.3 70.3 0 00.461-1.385c.111.315.222.646.325.945l.968 2.762zm.333-8.066a.567.567 0 00-.539-.37h-2.151a.58.58 0 00-.539.378l-4.872 13.432a.555.555 0 00.071.52c.112.15.286.244.469.244h2.11c.246 0 .46-.15.54-.378l.984-2.801h4.61l1.007 2.809c.08.228.294.378.54.378h2.166a.567.567 0 00.492-.858l-4.896-13.33.008-.024z" fill="#DF0A20"/><path d="M178.146 62.954h-9.926a.567.567 0 00-.572.567v1.975c0 .315.254.567.572.567h3.372v10.883c0 .314.254.566.571.566h2.031a.567.567 0 00.572-.566V66.063h3.372a.567.567 0 00.571-.567V63.52a.567.567 0 00-.571-.567" fill="#DF0A20"/><path d="M182.946 62.954h-2.031a.567.567 0 00-.571.567v13.433c0 .314.254.566.571.566h2.031a.567.567 0 00.572-.566V63.52a.567.567 0 00-.572-.567z" fill="#DF0A20"/><path d="M191.705 74.601c-1.888 0-3.158-1.763-3.158-4.383s1.214-4.344 3.087-4.344c1.872 0 3.182 1.763 3.182 4.383s-1.222 4.344-3.103 4.344m-.016-11.859c-3.8 0-6.355 3.022-6.355 7.515 0 4.494 2.539 7.476 6.316 7.476 3.776 0 6.379-3.022 6.379-7.515s-2.547-7.476-6.34-7.476z" fill="#DF0A20"/><path d="M210.605 62.954h-1.976a.567.567 0 00-.571.567V71.5a.528.528 0 00-.056-.086l-5.141-8.192a.572.572 0 00-.484-.268h-2.071a.567.567 0 00-.572.567v13.433c0 .314.254.566.572.566h1.975a.567.567 0 00.572-.566v-8.019l5.332 8.325a.56.56 0 00.484.26h1.936a.567.567 0 00.571-.566V63.52a.567.567 0 00-.571-.567z" fill="#DF0A20"/><path d="M220.5 71.398h-2.571l.817-2.322c.143-.417.31-.912.46-1.385.112.315.223.646.326.945l.968 2.762zm.333-8.066a.569.569 0 00-.54-.37h-2.15a.58.58 0 00-.539.378l-4.872 13.432a.552.552 0 00.071.52c.111.15.286.244.468.244h2.111c.246 0 .46-.15.54-.378l.983-2.801h4.61l1.008 2.809a.565.565 0 00.54.378h2.174a.567.567 0 00.492-.858l-4.896-13.33v-.024z" fill="#DF0A20"/><path d="M236.685 74.404h-6.181V63.52a.567.567 0 00-.571-.567h-2.032a.567.567 0 00-.571.567v13.433c0 .314.254.566.571.566h8.784a.567.567 0 00.571-.566v-1.976a.567.567 0 00-.571-.566" fill="#DF0A20"/><path d="M248.429 74.428h-6.411v-3.109h3.316a.566.566 0 00.571-.566v-1.96a.566.566 0 00-.571-.566h-3.316v-2.188h6.125a.567.567 0 00.571-.567v-1.96a.567.567 0 00-.571-.566h-8.728a.567.567 0 00-.571.567v13.433c0 .315.254.566.571.566h9.014a.567.567 0 00.571-.566v-1.96a.567.567 0 00-.571-.566" fill="#DF0A20"/></g><defs><clipPath id="clip0_656_17481"><rect width="249" height="79" fill="#fff"/></clipPath></defs></svg>