<svg width="686" height="863" viewBox="0 0 686 863" fill="none" xmlns="http://www.w3.org/2000/svg">
<g filter="url(#filter0_i_17_45)">
<path d="M198.314 659.775C183.899 665.14 140.741 684.652 129.453 705.136C118.641 724.754 125.283 637.165 125.283 637.165C125.283 637.165 128.773 588.821 139.23 560.05C149.412 532.033 157.737 516.534 176.755 493.539C197.818 468.072 215.045 458.636 242.424 440.069C293.624 405.348 330.121 399.584 386.353 373.715C416.03 360.063 454.127 338.787 462.363 338.787C470.6 338.787 465.044 373.521 455.543 392.37C444.368 414.542 406.905 433.445 406.905 433.445C406.905 433.445 376.761 449.788 357.008 459.393C339.318 467.994 328.806 475.524 320.569 479.28C312.332 483.036 309.918 488.949 312.332 493.539C317.959 504.242 344.404 496.655 344.404 496.655L371.938 487.5L420.306 463.355C420.306 463.355 448.466 443.698 464.543 428.809C484.76 410.087 510.942 375.69 510.942 375.69L552.128 314.522C552.128 314.522 586.665 258.314 602.582 241.014C618.498 223.713 631.927 218.2 635.531 231.077C639.134 243.954 639.801 248.419 630.534 284.368C621.268 320.317 606.948 351.978 606.948 351.978C606.948 351.978 588.421 389.623 573.802 412.107C557.806 436.708 527.957 471.665 527.957 471.665L488.612 513.305C488.612 513.305 449.019 548.843 420.306 569.399C384.144 595.289 361.577 607.169 320.569 624.456C274.787 643.755 212.73 654.409 198.314 659.775Z" fill="#FFDE59"/>
</g>
<path d="M76.896 750.92C78.816 750.728 80.192 751.048 81.024 751.88C81.92 752.648 82.368 753.896 82.368 755.624C82.368 757.608 81.824 759.112 80.736 760.136C79.712 761.16 77.888 761.8 75.264 762.056C70.4 762.568 65.92 762.92 61.824 763.112C57.728 763.24 52 763.304 44.64 763.304H44.448C41.696 777.128 39.52 788.936 37.92 798.728C37.152 803.4 36.384 808.584 35.616 814.28C34.912 819.912 34.432 824.392 34.176 827.72C34.048 829.576 33.28 831.016 31.872 832.04C30.464 833 28.768 833.48 26.784 833.48C24.672 833.48 23.04 832.968 21.888 831.944C20.736 830.92 20.16 829.576 20.16 827.912C20.16 826.376 20.384 823.848 20.832 820.328C21.344 816.744 21.92 813 22.56 809.096C23.264 805.192 23.808 801.8 24.192 798.92C25.216 791.944 26.816 783.08 28.992 772.328L30.72 763.88C25.088 764.456 21.024 765.576 18.528 767.24C16.032 768.84 14.784 771.144 14.784 774.152C14.784 776.328 15.424 778.408 16.704 780.392C17.088 780.968 17.28 781.544 17.28 782.12C17.28 783.272 16.64 784.296 15.36 785.192C14.08 786.024 12.64 786.44 11.04 786.44C9.312 786.44 7.84 785.928 6.624 784.904C5.728 784.136 4.96 782.728 4.32 780.68C3.68 778.568 3.36 776.456 3.36 774.344C3.36 766.6 6.784 760.936 13.632 757.352C20.48 753.704 31.136 751.88 45.6 751.88C53.664 751.88 59.872 751.816 64.224 751.688C68.64 751.56 72.864 751.304 76.896 750.92ZM97.4175 833.48C91.7215 833.48 86.5695 832.2 81.9615 829.64C77.4175 827.08 73.8015 823.336 71.1135 818.408C68.4255 813.416 67.0815 807.464 67.0815 800.552C67.0815 790.824 68.8415 782.248 72.3615 774.824C75.9455 767.4 80.7775 761.672 86.8575 757.64C93.0015 753.608 99.7855 751.592 107.21 751.592C112.906 751.592 118.026 752.872 122.57 755.432C127.178 757.992 130.826 761.768 133.514 766.76C136.202 771.688 137.546 777.608 137.546 784.52C137.546 794.248 135.754 802.824 132.17 810.248C128.65 817.672 123.818 823.4 117.674 827.432C111.594 831.464 104.842 833.48 97.4175 833.48ZM98.3775 822.152C103.37 822.152 107.754 820.616 111.53 817.544C115.37 814.472 118.314 810.216 120.362 804.776C122.41 799.272 123.434 793.064 123.434 786.152C123.434 778.536 121.834 772.776 118.634 768.872C115.434 764.904 111.306 762.92 106.25 762.92C101.322 762.92 96.9695 764.456 93.1935 767.528C89.4175 770.536 86.4735 774.792 84.3615 780.296C82.2495 785.736 81.1935 791.944 81.1935 798.92C81.1935 806.536 82.7935 812.328 85.9935 816.296C89.1935 820.2 93.3215 822.152 98.3775 822.152ZM181.615 775.88C179.311 775.88 177.551 775.272 176.335 774.056C175.183 772.776 174.607 771.08 174.607 768.968C174.607 766.728 175.279 763.752 176.623 760.04C177.967 756.328 179.599 752.712 181.519 749.192C182.799 746.824 183.791 745.256 184.495 744.488C185.263 743.72 186.255 743.336 187.471 743.336C188.879 743.336 189.999 743.656 190.831 744.296C191.663 744.936 192.079 745.96 192.079 747.368C192.079 747.944 191.983 748.616 191.791 749.384C191.087 752.328 190.543 755.048 190.159 757.544C189.839 760.04 189.679 762.824 189.679 765.896C189.679 769.096 188.911 771.56 187.375 773.288C185.903 775.016 183.983 775.88 181.615 775.88ZM202.735 775.88C200.431 775.88 198.671 775.272 197.455 774.056C196.303 772.776 195.727 771.08 195.727 768.968C195.727 766.728 196.399 763.752 197.743 760.04C199.087 756.328 200.719 752.712 202.639 749.192C203.919 746.824 204.911 745.256 205.615 744.488C206.383 743.72 207.375 743.336 208.591 743.336C209.999 743.336 211.119 743.656 211.951 744.296C212.783 744.936 213.199 745.96 213.199 747.368C213.199 747.944 213.103 748.616 212.911 749.384C212.207 752.328 211.663 755.048 211.279 757.544C210.959 760.04 210.799 762.824 210.799 765.896C210.799 769.096 210.031 771.56 208.495 773.288C207.023 775.016 205.103 775.88 202.735 775.88ZM312.692 811.592C313.524 811.592 314.164 811.976 314.612 812.744C315.124 813.512 315.38 814.568 315.38 815.912C315.38 818.408 314.772 820.392 313.556 821.864C307.22 829.608 300.468 833.48 293.3 833.48C287.092 833.48 282.132 831.08 278.42 826.28C274.708 821.48 272.852 814.6 272.852 805.64C272.852 803.464 272.948 801.288 273.14 799.112C268.916 799.88 264.308 800.456 259.316 800.84C255.988 801.096 253.716 801.256 252.5 801.32C251.22 807.848 249.428 815.848 247.124 825.32C245.78 830.888 243.22 833.672 239.444 833.672C235.348 833.672 233.299 831.816 233.299 828.104C233.299 827.272 233.46 826.12 233.78 824.648C235.956 815.88 237.684 808.456 238.964 802.376L234.356 802.568C232.244 802.568 230.708 802.216 229.748 801.512C228.788 800.744 228.308 799.528 228.308 797.864C228.308 795.752 228.916 794.216 230.132 793.256C231.348 792.232 233.364 791.656 236.18 791.528L241.268 791.336C242.932 782.312 243.764 775.432 243.764 770.696C243.764 767.688 243.316 765.64 242.42 764.552C241.524 763.464 240.34 762.92 238.868 762.92C234.388 762.92 229.332 766.664 223.7 774.152C222.868 775.24 221.94 775.784 220.916 775.784C220.02 775.784 219.252 775.368 218.611 774.536C217.971 773.704 217.651 772.648 217.651 771.368C217.651 769.384 218.451 767.272 220.052 765.032C222.868 761.128 226.42 757.928 230.708 755.432C234.996 752.872 239.348 751.592 243.764 751.592C247.924 751.592 251.124 753.032 253.364 755.912C255.668 758.728 256.82 763.144 256.82 769.16C256.82 774.472 256.052 781.672 254.516 790.76L263.924 790.28C267.956 790.088 271.412 789.768 274.292 789.32C275.444 782.28 277.204 775.688 279.572 769.544C281.94 763.4 284.884 758.408 288.404 754.568C291.924 750.728 295.86 748.808 300.212 748.808C303.412 748.808 305.94 750.088 307.796 752.648C309.652 755.144 310.58 758.44 310.58 762.536C310.58 778.408 302.484 789.416 286.292 795.56C286.1 798.12 286.004 800.776 286.004 803.528C286.004 810.248 286.836 815.016 288.5 817.832C290.164 820.648 292.5 822.056 295.508 822.056C298.132 822.056 300.532 821.384 302.708 820.04C304.884 818.632 307.348 816.264 310.1 812.936C310.868 812.04 311.732 811.592 312.692 811.592ZM299.732 757.16C298.324 757.16 296.82 758.44 295.22 761C293.684 763.56 292.212 767.048 290.804 771.464C289.396 775.88 288.276 780.712 287.444 785.96C292.564 783.848 296.34 780.84 298.772 776.936C301.204 773.032 302.42 768.008 302.42 761.864C302.42 760.392 302.164 759.24 301.652 758.408C301.14 757.576 300.5 757.16 299.732 757.16ZM331.8 833.48C327.384 833.48 323.384 832.392 319.8 830.216C316.28 828.04 313.496 824.904 311.448 820.808C309.4 816.648 308.376 811.752 308.376 806.12C308.376 796.392 310.456 787.4 314.616 779.144C318.776 770.824 324.92 764.168 333.048 759.176C341.176 754.12 350.936 751.592 362.328 751.592C365.272 751.592 368.408 751.816 371.736 752.264C375.128 752.712 378.2 753.384 380.952 754.28C382.744 754.792 383.64 756.072 383.64 758.12C383.64 759.784 383 761.352 381.72 762.824C380.504 764.296 379.064 765.032 377.4 765.032C376.888 765.032 376.504 765 376.248 764.936C372.92 764.168 370.072 763.624 367.704 763.304C365.336 762.92 362.84 762.728 360.216 762.728C352.088 762.728 345.176 764.712 339.48 768.68C333.784 772.584 329.528 777.768 326.712 784.232C323.896 790.696 322.488 797.672 322.488 805.16C322.488 810.6 323.544 814.824 325.656 817.832C327.832 820.776 330.648 822.248 334.104 822.248C338.008 822.248 341.432 820.648 344.376 817.448C347.32 814.248 350.008 809.064 352.44 801.896C354.872 794.728 357.272 785 359.64 772.712C360.024 770.92 360.792 769.704 361.944 769.064C363.096 768.424 364.632 768.104 366.552 768.104C371.096 768.104 373.368 769.576 373.368 772.52C373.368 773.032 373.272 773.672 373.08 774.44C371.416 780.648 369.88 787.528 368.472 795.08C367.128 802.568 366.456 808.264 366.456 812.168C366.456 815.624 366.968 818.152 367.992 819.752C369.016 821.288 370.584 822.056 372.696 822.056C374.744 822.056 376.696 821.384 378.552 820.04C380.408 818.632 382.744 816.264 385.56 812.936C386.328 812.04 387.192 811.592 388.152 811.592C388.984 811.592 389.624 811.976 390.072 812.744C390.584 813.512 390.84 814.568 390.84 815.912C390.84 818.408 390.232 820.392 389.016 821.864C385.88 825.64 382.808 828.52 379.8 830.504C376.792 832.488 373.112 833.48 368.76 833.48C364.28 833.48 360.664 832.2 357.912 829.64C355.16 827.016 353.432 823.336 352.728 818.6C347.992 828.52 341.016 833.48 331.8 833.48ZM430.597 750.44C442.949 750.44 452.389 753.704 458.917 760.232C465.509 766.696 468.805 776.072 468.805 788.36C468.805 796.744 467.397 804.392 464.581 811.304C461.765 818.152 457.861 823.56 452.869 827.528C447.877 831.496 442.245 833.48 435.973 833.48C432.709 833.48 429.797 833.16 427.237 832.52C424.741 831.88 422.373 830.984 420.133 829.832C417.893 828.616 414.981 826.856 411.397 824.552C409.797 827.816 407.493 830.28 404.485 831.944C401.477 833.608 397.893 834.44 393.733 834.44C388.997 834.44 385.509 833.416 383.269 831.368C381.093 829.256 380.005 826.376 380.005 822.728C380.005 818.824 381.349 815.656 384.037 813.224C386.725 810.728 390.341 809.48 394.885 809.48C397.445 809.48 400.165 809.896 403.045 810.728C403.877 802.856 404.965 796.424 406.309 791.432C407.717 786.376 409.701 781.256 412.261 776.072C413.157 774.216 414.213 772.872 415.429 772.04C416.645 771.208 418.149 770.792 419.941 770.792C421.669 770.792 423.013 771.144 423.973 771.848C424.933 772.552 425.413 773.48 425.413 774.632C425.413 775.464 425.189 776.296 424.741 777.128C423.269 779.816 421.829 783.4 420.421 787.88C419.077 792.36 418.021 796.712 417.253 800.936L416.677 804.2C415.909 808.744 415.173 812.488 414.469 815.432C417.861 817.288 421.221 818.76 424.549 819.848C427.941 820.872 430.981 821.384 433.669 821.384C437.893 821.384 441.573 820.008 444.709 817.256C447.909 814.504 450.373 810.632 452.101 805.64C453.829 800.648 454.693 794.824 454.693 788.168C454.693 779.144 452.677 772.424 448.645 768.008C444.613 763.592 438.501 761.384 430.309 761.384C425.189 761.384 420.037 762.152 414.853 763.688C409.733 765.224 405.029 767.368 400.741 770.12C399.781 770.696 398.917 770.984 398.149 770.984C397.061 770.984 396.165 770.568 395.461 769.736C394.821 768.84 394.501 767.656 394.501 766.184C394.501 764.648 394.757 763.4 395.269 762.44C395.781 761.48 396.645 760.552 397.861 759.656C401.957 756.84 406.949 754.6 412.837 752.936C418.789 751.272 424.709 750.44 430.597 750.44ZM394.309 825.608C396.229 825.608 397.765 825.16 398.917 824.264C400.133 823.304 401.061 821.736 401.701 819.56C399.141 818.6 396.901 818.12 394.981 818.12C393.381 818.12 392.133 818.536 391.237 819.368C390.405 820.2 389.989 821.16 389.989 822.248C389.989 824.488 391.429 825.608 394.309 825.608ZM518.424 752.168C520.088 752.168 521.496 752.584 522.648 753.416C523.8 754.184 524.376 755.144 524.376 756.296C524.376 758.344 523.736 760.008 522.456 761.288C521.176 762.504 519.352 763.112 516.984 763.112C513.272 763.112 510.456 763.144 508.536 763.208C508.408 763.976 507.832 767.432 506.808 773.576C505.656 780.424 504.952 784.616 504.696 786.152L502.68 798.728C501.272 808.136 500.152 816.008 499.32 822.344C500.664 822.28 502.488 822.248 504.792 822.248C508.184 822.248 510.488 822.696 511.704 823.592C512.92 824.488 513.528 825.832 513.528 827.624C513.528 829.288 512.856 830.696 511.512 831.848C510.232 833 508.408 833.576 506.04 833.576C504.44 833.576 501.912 833.512 498.456 833.384C495.256 833.256 493.144 833.192 492.12 833.192C488.088 833.192 483.672 833.544 478.872 834.248C476.76 834.568 475.256 834.728 474.36 834.728C472.952 834.728 471.768 834.344 470.808 833.576C469.848 832.808 469.368 831.688 469.368 830.216C469.368 827.912 470.392 826.12 472.44 824.84C474.488 823.56 477.368 822.888 481.08 822.824L485.592 822.728L485.88 820.616C487.416 810.376 488.536 803.144 489.24 798.92L491.352 786.344C492.632 778.92 493.784 771.272 494.808 763.4L486.744 763.496C484.44 763.496 482.84 763.144 481.944 762.44C481.112 761.672 480.696 760.616 480.696 759.272C480.696 754.92 483.832 752.584 490.104 752.264C493.048 752.136 496.632 752.072 500.856 752.072L518.424 752.168ZM609.827 811.592C610.659 811.592 611.299 811.976 611.747 812.744C612.259 813.512 612.515 814.568 612.515 815.912C612.515 818.408 611.907 820.392 610.691 821.864C607.555 825.832 604.323 828.776 600.995 830.696C597.667 832.552 594.115 833.48 590.339 833.48C585.219 833.48 581.475 832.104 579.107 829.352C576.803 826.6 575.651 822.184 575.651 816.104C575.651 812.136 576.131 807.368 577.091 801.8L576.899 801.896C569.859 812.84 563.203 820.904 556.931 826.088C550.659 831.208 544.259 833.768 537.731 833.768C534.339 833.768 531.235 833.128 528.419 831.848C525.603 830.504 523.363 828.68 521.699 826.376C520.099 824.072 519.299 821.544 519.299 818.792C519.299 816.552 519.715 814.792 520.547 813.512C521.379 812.168 522.531 811.496 524.003 811.496C525.795 811.496 527.075 812.424 527.843 814.28C529.443 817.8 530.947 820.2 532.355 821.48C533.763 822.76 535.651 823.4 538.019 823.4C541.859 823.4 546.243 821.416 551.171 817.448C556.099 813.416 560.803 808.2 565.283 801.8C563.747 801.992 562.243 802.088 560.771 802.088C555.779 802.088 551.427 801.16 547.715 799.304C544.003 797.384 541.155 794.696 539.171 791.24C537.187 787.784 536.195 783.72 536.195 779.048C536.195 773.736 537.315 769 539.555 764.84C541.795 760.68 544.931 757.448 548.963 755.144C552.995 752.776 557.667 751.592 562.979 751.592C569.635 751.592 576.259 752.616 582.851 754.664C583.363 753.768 584.131 753.096 585.155 752.648C586.179 752.136 587.331 751.88 588.611 751.88C590.531 751.88 592.003 752.456 593.027 753.608C594.115 754.696 594.659 756.2 594.659 758.12C594.659 760.552 594.371 763.656 593.795 767.432C593.283 771.208 592.483 776.072 591.395 782.024C590.051 789.704 589.027 795.88 588.323 800.552C587.683 805.224 587.363 809.384 587.363 813.032C587.363 816.168 587.875 818.472 588.899 819.944C589.987 821.352 591.651 822.056 593.891 822.056C595.939 822.056 597.987 821.352 600.035 819.944C602.083 818.536 604.483 816.2 607.235 812.936C607.939 812.04 608.803 811.592 609.827 811.592ZM564.899 792.2C567.843 792.2 569.987 792.104 571.331 791.912C572.419 789.864 573.379 787.848 574.211 785.864C577.283 778.952 579.555 771.784 581.027 764.36C577.635 763.528 574.659 762.952 572.099 762.632C569.603 762.248 567.011 762.056 564.323 762.056C559.459 762.056 555.779 763.464 553.283 766.28C550.787 769.096 549.539 773.128 549.539 778.376C549.539 782.984 550.755 786.44 553.187 788.744C555.619 790.984 559.523 792.136 564.899 792.2ZM614.612 775.88C613.204 775.88 612.084 775.56 611.252 774.92C610.42 774.28 610.004 773.256 610.004 771.848C610.004 771.272 610.1 770.6 610.292 769.832C610.996 766.888 611.508 764.168 611.828 761.672C612.212 759.176 612.404 756.392 612.404 753.32C612.404 750.12 613.14 747.656 614.612 745.928C616.148 744.2 618.1 743.336 620.468 743.336C622.772 743.336 624.5 743.976 625.652 745.256C626.868 746.472 627.476 748.136 627.476 750.248C627.476 752.488 626.804 755.464 625.46 759.176C624.116 762.888 622.484 766.504 620.564 770.024C619.284 772.392 618.26 773.96 617.492 774.728C616.788 775.496 615.828 775.88 614.612 775.88ZM635.732 775.88C634.324 775.88 633.204 775.56 632.372 774.92C631.54 774.28 631.124 773.256 631.124 771.848C631.124 771.272 631.22 770.6 631.412 769.832C632.116 766.888 632.628 764.168 632.948 761.672C633.332 759.176 633.524 756.392 633.524 753.32C633.524 750.12 634.26 747.656 635.732 745.928C637.268 744.2 639.22 743.336 641.588 743.336C643.892 743.336 645.62 743.976 646.772 745.256C647.988 746.472 648.596 748.136 648.596 750.248C648.596 752.488 647.924 755.464 646.58 759.176C645.236 762.888 643.604 766.504 641.684 770.024C640.404 772.392 639.38 773.96 638.612 774.728C637.908 775.496 636.948 775.88 635.732 775.88Z" fill="white"/>
<g filter="url(#filter1_i_17_45)">
<path d="M486.328 45.4482C501.225 40.4953 545.825 22.4844 557.491 3.57615C568.664 -14.5327 561.8 66.3188 561.8 66.3188C561.8 66.3188 558.194 110.943 547.387 137.501C536.864 163.363 528.262 177.671 508.609 198.896C486.842 222.405 469.039 231.114 440.746 248.253C387.834 280.304 350.114 285.626 292.007 309.503C261.337 322.106 221.969 341.744 213.457 341.744C204.945 341.744 210.687 309.682 220.505 292.283C232.054 271.817 270.768 254.368 270.768 254.368C270.768 254.368 301.919 239.282 322.333 230.416C340.614 222.476 351.476 215.526 359.989 212.059C368.501 208.592 370.996 203.133 368.501 198.896C362.686 189.017 335.358 196.02 335.358 196.02L306.904 204.471L256.919 226.759C256.919 226.759 227.819 244.903 211.204 258.647C190.312 275.929 163.255 307.68 163.255 307.68L120.693 364.143C120.693 364.143 85.0024 416.027 68.5536 431.996C52.1048 447.966 38.2275 453.056 34.5035 441.169C30.7795 429.282 30.09 425.161 39.6666 391.977C49.2432 358.793 64.0413 329.568 64.0413 329.568C64.0413 329.568 83.1874 294.819 98.2949 274.064C114.825 251.356 145.672 219.088 145.672 219.088L186.331 180.651C186.331 180.651 227.247 147.847 256.919 128.871C294.289 104.973 317.611 94.0075 359.989 78.0503C407.3 60.2356 471.431 50.401 486.328 45.4482Z" fill="#014AAB"/>
</g>
<defs>
<filter id="filter0_i_17_45" x="123.265" y="224" width="514.735" height="488" filterUnits="userSpaceOnUse" color-interpolation-filters="sRGB">
<feFlood flood-opacity="0" result="BackgroundImageFix"/>
<feBlend mode="normal" in="SourceGraphic" in2="BackgroundImageFix" result="shape"/>
<feColorMatrix in="SourceAlpha" type="matrix" values="0 0 0 0 0 0 0 0 0 0 0 0 0 0 0 0 0 0 127 0" result="hardAlpha"/>
<feOffset dy="4"/>
<feGaussianBlur stdDeviation="2"/>
<feComposite in2="hardAlpha" operator="arithmetic" k2="-1" k3="1"/>
<feColorMatrix type="matrix" values="0 0 0 0 0 0 0 0 0 0 0 0 0 0 0 0 0 0 0.25 0"/>
<feBlend mode="normal" in2="shape" result="effect1_innerShadow_17_45"/>
</filter>
<filter id="filter1_i_17_45" x="31.9517" y="0.932373" width="531.935" height="450.769" filterUnits="userSpaceOnUse" color-interpolation-filters="sRGB">
<feFlood flood-opacity="0" result="BackgroundImageFix"/>
<feBlend mode="normal" in="SourceGraphic" in2="BackgroundImageFix" result="shape"/>
<feColorMatrix in="SourceAlpha" type="matrix" values="0 0 0 0 0 0 0 0 0 0 0 0 0 0 0 0 0 0 127 0" result="hardAlpha"/>
<feOffset dy="4"/>
<feGaussianBlur stdDeviation="2"/>
<feComposite in2="hardAlpha" operator="arithmetic" k2="-1" k3="1"/>
<feColorMatrix type="matrix" values="0 0 0 0 0 0 0 0 0 0 0 0 0 0 0 0 0 0 0.25 0"/>
<feBlend mode="normal" in2="shape" result="effect1_innerShadow_17_45"/>
</filter>
</defs>
</svg>
