<svg width="1275" height="1275" viewBox="0 0 1275 1275" fill="none" xmlns="http://www.w3.org/2000/svg">
<g filter="url(#filter0_f_4_19)">
<rect x="300" y="300" width="675" height="675" rx="336" fill="black"/>
</g>
<g filter="url(#filter1_d_4_19)">
<path d="M476 397.74V404.94H447.83V462H439.73V397.74H476ZM541.239 429.78C541.239 434.76 540.609 439.29 539.349 443.37C538.089 447.39 536.199 450.87 533.679 453.81C531.219 456.75 528.129 459 524.409 460.56C520.749 462.12 516.489 462.9 511.629 462.9C506.589 462.9 502.209 462.12 498.489 460.56C494.769 458.94 491.679 456.69 489.219 453.81C486.759 450.87 484.929 447.36 483.729 443.28C482.529 439.2 481.929 434.67 481.929 429.69C481.929 423.09 483.009 417.33 485.169 412.41C487.329 407.49 490.599 403.65 494.979 400.89C499.419 398.13 504.999 396.75 511.719 396.75C518.139 396.75 523.539 398.13 527.919 400.89C532.299 403.59 535.599 407.43 537.819 412.41C540.099 417.33 541.239 423.12 541.239 429.78ZM490.479 429.78C490.479 435.18 491.229 439.83 492.729 443.73C494.229 447.63 496.539 450.63 499.659 452.73C502.839 454.83 506.829 455.88 511.629 455.88C516.489 455.88 520.449 454.83 523.509 452.73C526.629 450.63 528.939 447.63 530.439 443.73C531.939 439.83 532.689 435.18 532.689 429.78C532.689 421.68 531.009 415.35 527.649 410.79C524.289 406.17 518.979 403.86 511.719 403.86C506.859 403.86 502.839 404.91 499.659 407.01C496.539 409.05 494.229 412.02 492.729 415.92C491.229 419.76 490.479 424.38 490.479 429.78Z" fill="white"/>
</g>
<g filter="url(#filter2_i_4_19)">
<path d="M470.617 897.394C458.683 901.909 422.951 918.328 413.605 935.565C404.654 952.073 410.153 878.368 410.153 878.368C410.153 878.368 413.043 837.688 421.7 813.477C430.13 789.901 437.022 776.859 452.768 757.509C470.206 736.079 484.469 728.139 507.136 712.515C549.526 683.297 579.742 678.447 626.298 656.679C650.868 645.191 682.409 627.288 689.228 627.288C696.048 627.288 691.448 656.516 683.582 672.377C674.329 691.034 643.313 706.941 643.313 706.941C643.313 706.941 618.357 720.693 602.002 728.775C587.356 736.013 578.654 742.349 571.834 745.51C565.014 748.67 563.016 753.647 565.014 757.509C569.674 766.515 591.567 760.131 591.567 760.131L614.363 752.427L654.408 732.109C654.408 732.109 677.722 715.569 691.033 703.04C707.771 687.286 729.447 658.341 729.447 658.341L763.546 606.869C763.546 606.869 792.14 559.571 805.318 545.013C818.495 530.455 829.613 525.815 832.597 536.651C835.58 547.487 836.133 551.244 828.46 581.495C820.788 611.746 808.932 638.388 808.932 638.388C808.932 638.388 793.594 670.065 781.49 688.985C768.247 709.687 743.534 739.102 743.534 739.102L710.96 774.141C710.96 774.141 678.181 804.046 654.408 821.344C624.469 843.13 605.785 853.127 571.834 867.673C533.931 883.913 482.552 892.879 470.617 897.394Z" fill="#FFDE59"/>
</g>
<g filter="url(#filter3_d_4_19)">
<path d="M469.17 836.46C468.51 839.247 467.813 842.253 467.08 845.48C466.347 848.707 465.687 851.86 465.1 854.94C464.513 858.02 464.037 860.843 463.67 863.41H453.22L452.45 862.2C453.11 859.633 453.953 856.883 454.98 853.95C456.007 850.943 457.143 847.937 458.39 844.93C459.637 841.923 460.847 839.1 462.02 836.46H469.17ZM448.82 836.46C448.16 839.247 447.463 842.253 446.73 845.48C445.997 848.707 445.337 851.86 444.75 854.94C444.163 858.02 443.687 860.843 443.32 863.41H432.98L432.32 862.2C432.98 859.633 433.823 856.883 434.85 853.95C435.877 850.943 436.977 847.937 438.15 844.93C439.397 841.923 440.607 839.1 441.78 836.46H448.82ZM541.261 915H531.361V878.37H491.101V915H481.201V836.46H491.101V869.68H531.361V836.46H541.261V915ZM612.014 915L602.554 890.69H571.424L562.074 915H552.064L582.754 836.13H591.664L622.244 915H612.014ZM590.784 858.13C590.564 857.543 590.198 856.48 589.684 854.94C589.171 853.4 588.658 851.823 588.144 850.21C587.704 848.523 587.338 847.24 587.044 846.36C586.678 847.827 586.274 849.33 585.834 850.87C585.468 852.337 585.064 853.693 584.624 854.94C584.258 856.187 583.928 857.25 583.634 858.13L574.724 881.89H599.584L590.784 858.13ZM685.898 836.46V906.2H695.908V935.68H686.448V915H632.438V935.68H622.978V906.2H629.028C631.668 901.653 634.162 896.557 636.508 890.91C638.928 885.263 641.055 879.36 642.888 873.2C644.722 866.967 646.225 860.733 647.398 854.5C648.572 848.267 649.305 842.253 649.598 836.46H685.898ZM658.288 845.37C657.995 849.623 657.262 854.427 656.088 859.78C654.988 865.133 653.558 870.633 651.798 876.28C650.112 881.853 648.205 887.243 646.078 892.45C644.025 897.657 641.825 902.24 639.478 906.2H676.108V845.37H658.288ZM731.153 915H702.773V909.28L712.013 907.19V844.38L702.773 842.18V836.46H731.153V842.18L721.913 844.38V907.19L731.153 909.28V915ZM769.968 882.44L749.618 915H738.068L760.068 880.68C757.282 879.727 754.642 878.407 752.148 876.72C749.728 875.033 747.748 872.723 746.208 869.79C744.668 866.857 743.898 863.08 743.898 858.46C743.898 851.347 746.355 845.92 751.268 842.18C756.182 838.367 763.515 836.46 773.268 836.46H795.268V915H785.368V882.44H769.968ZM773.488 844.93C769.308 844.93 765.788 845.407 762.928 846.36C760.068 847.313 757.868 848.817 756.328 850.87C754.862 852.923 754.128 855.6 754.128 858.9C754.128 863.74 755.742 867.48 758.968 870.12C762.195 872.76 767.182 874.08 773.928 874.08H785.368V844.93H773.488ZM844.072 837.67C843.412 840.237 842.569 843.023 841.542 846.03C840.516 849.037 839.379 852.043 838.132 855.05C836.959 857.983 835.786 860.77 834.612 863.41H827.352C828.086 860.623 828.782 857.653 829.442 854.5C830.176 851.273 830.836 848.12 831.422 845.04C832.082 841.887 832.596 839.027 832.962 836.46H843.302L844.072 837.67ZM823.722 837.67C823.062 840.237 822.219 843.023 821.192 846.03C820.166 849.037 819.029 852.043 817.782 855.05C816.609 857.983 815.436 860.77 814.262 863.41H807.222C807.736 861.357 808.249 859.157 808.762 856.81C809.276 854.463 809.752 852.117 810.192 849.77C810.706 847.35 811.146 845.003 811.512 842.73C811.952 840.457 812.319 838.367 812.612 836.46H822.952L823.722 837.67Z" fill="white"/>
</g>
<g filter="url(#filter4_i_4_19)">
<path d="M793.709 372.586C806.043 368.418 842.968 353.262 852.626 337.351C861.876 322.113 856.194 390.148 856.194 390.148C856.194 390.148 853.208 427.699 844.261 450.047C835.549 471.81 828.427 483.849 812.155 501.71C794.134 521.492 779.395 528.821 755.97 543.243C712.164 570.213 680.935 574.692 632.827 594.784C607.435 605.389 574.841 621.915 567.794 621.915C560.747 621.915 565.5 594.935 573.629 580.294C583.191 563.072 615.243 548.389 615.243 548.389C615.243 548.389 641.033 535.694 657.934 528.234C673.07 521.553 682.063 515.704 689.111 512.786C696.158 509.869 698.223 505.276 696.158 501.71C691.343 493.397 668.718 499.29 668.718 499.29L645.16 506.401L603.777 525.156C603.777 525.156 579.685 540.424 565.929 551.99C548.632 566.532 526.231 593.25 526.231 593.25L490.993 640.763C490.993 640.763 461.444 684.422 447.826 697.861C434.208 711.299 422.718 715.582 419.635 705.579C416.552 695.577 415.981 692.109 423.91 664.185C431.838 636.261 444.09 611.668 444.09 611.668C444.09 611.668 459.941 582.428 472.449 564.963C486.135 545.854 511.674 518.701 511.674 518.701L545.336 486.357C545.336 486.357 579.211 458.753 603.777 442.785C634.717 422.675 654.025 413.448 689.111 400.02C728.281 385.029 781.376 376.754 793.709 372.586Z" fill="#014AAB"/>
</g>
<defs>
<filter id="filter0_f_4_19" x="0" y="0" width="1275" height="1275" filterUnits="userSpaceOnUse" color-interpolation-filters="sRGB">
<feFlood flood-opacity="0" result="BackgroundImageFix"/>
<feBlend mode="normal" in="SourceGraphic" in2="BackgroundImageFix" result="shape"/>
<feGaussianBlur stdDeviation="150" result="effect1_foregroundBlur_4_19"/>
</filter>
<filter id="filter1_d_4_19" x="439.73" y="396.75" width="113.509" height="79.1499" filterUnits="userSpaceOnUse" color-interpolation-filters="sRGB">
<feFlood flood-opacity="0" result="BackgroundImageFix"/>
<feColorMatrix in="SourceAlpha" type="matrix" values="0 0 0 0 0 0 0 0 0 0 0 0 0 0 0 0 0 0 127 0" result="hardAlpha"/>
<feOffset dx="9" dy="10"/>
<feGaussianBlur stdDeviation="1.5"/>
<feComposite in2="hardAlpha" operator="out"/>
<feColorMatrix type="matrix" values="0 0 0 0 0 0 0 0 0 0 0 0 0 0 0 0 0 0 0.25 0"/>
<feBlend mode="normal" in2="BackgroundImageFix" result="effect1_dropShadow_4_19"/>
<feBlend mode="normal" in="SourceGraphic" in2="effect1_dropShadow_4_19" result="shape"/>
</filter>
<filter id="filter2_i_4_19" x="406.482" y="530.696" width="428.159" height="417.278" filterUnits="userSpaceOnUse" color-interpolation-filters="sRGB">
<feFlood flood-opacity="0" result="BackgroundImageFix"/>
<feBlend mode="normal" in="SourceGraphic" in2="BackgroundImageFix" result="shape"/>
<feColorMatrix in="SourceAlpha" type="matrix" values="0 0 0 0 0 0 0 0 0 0 0 0 0 0 0 0 0 0 127 0" result="hardAlpha"/>
<feOffset dx="-2" dy="10"/>
<feGaussianBlur stdDeviation="10"/>
<feComposite in2="hardAlpha" operator="arithmetic" k2="-1" k3="1"/>
<feColorMatrix type="matrix" values="0 0 0 0 0 0 0 0 0 0 0 0 0 0 0 0 0 0 0.25 0"/>
<feBlend mode="normal" in2="shape" result="effect1_innerShadow_4_19"/>
</filter>
<filter id="filter3_d_4_19" x="432.32" y="836.13" width="423.752" height="112.55" filterUnits="userSpaceOnUse" color-interpolation-filters="sRGB">
<feFlood flood-opacity="0" result="BackgroundImageFix"/>
<feColorMatrix in="SourceAlpha" type="matrix" values="0 0 0 0 0 0 0 0 0 0 0 0 0 0 0 0 0 0 127 0" result="hardAlpha"/>
<feOffset dx="9" dy="10"/>
<feGaussianBlur stdDeviation="1.5"/>
<feComposite in2="hardAlpha" operator="out"/>
<feColorMatrix type="matrix" values="0 0 0 0 0 0 0 0 0 0 0 0 0 0 0 0 0 0 0.25 0"/>
<feBlend mode="normal" in2="BackgroundImageFix" result="effect1_dropShadow_4_19"/>
<feBlend mode="normal" in="SourceGraphic" in2="effect1_dropShadow_4_19" result="shape"/>
</filter>
<filter id="filter4_i_4_19" x="415.522" y="335.126" width="442.398" height="385.949" filterUnits="userSpaceOnUse" color-interpolation-filters="sRGB">
<feFlood flood-opacity="0" result="BackgroundImageFix"/>
<feBlend mode="normal" in="SourceGraphic" in2="BackgroundImageFix" result="shape"/>
<feColorMatrix in="SourceAlpha" type="matrix" values="0 0 0 0 0 0 0 0 0 0 0 0 0 0 0 0 0 0 127 0" result="hardAlpha"/>
<feOffset dx="-2" dy="10"/>
<feGaussianBlur stdDeviation="10"/>
<feComposite in2="hardAlpha" operator="arithmetic" k2="-1" k3="1"/>
<feColorMatrix type="matrix" values="0 0 0 0 0 0 0 0 0 0 0 0 0 0 0 0 0 0 0.25 0"/>
<feBlend mode="normal" in2="shape" result="effect1_innerShadow_4_19"/>
</filter>
</defs>
</svg>
