<svg width="744" height="743" viewBox="0 0 744 743" fill="none" xmlns="http://www.w3.org/2000/svg">
<g filter="url(#filter0_d_4_19)">
<path d="M143.77 203.9C142.51 203.9 141.46 203.27 140.62 202.01C139.78 200.69 139.36 199.22 139.36 197.6C139.36 196.7 139.45 194.99 139.63 192.47C139.81 189.89 139.96 186.77 140.08 183.11C140.26 179.45 140.35 175.55 140.35 171.41C140.35 168.05 140.32 164.84 140.26 161.78C140.2 158.66 140.11 155.72 139.99 152.96C139.93 150.14 139.81 147.47 139.63 144.95L148.09 144.41C148.27 147.77 148.39 151.82 148.45 156.56C148.51 161.3 148.51 166.19 148.45 171.23C148.45 175.73 148.39 179.93 148.27 183.83C148.21 187.67 148.12 190.97 148 193.73C147.88 196.43 147.76 198.41 147.64 199.67C147.52 200.87 147.13 201.89 146.47 202.73C145.81 203.51 144.91 203.9 143.77 203.9ZM139.45 147.56C138.43 147.56 137.56 147.35 136.84 146.93C136.12 146.51 135.52 145.97 135.04 145.31C134.62 144.59 134.41 143.87 134.41 143.15C134.41 142.07 134.86 141.29 135.76 140.81C136.72 140.33 138.37 140 140.71 139.82C141.61 139.76 143.11 139.73 145.21 139.73C147.37 139.67 149.83 139.64 152.59 139.64C155.41 139.58 158.35 139.52 161.41 139.46C164.47 139.4 167.41 139.37 170.23 139.37C172.21 139.37 173.71 139.55 174.73 139.91C175.81 140.27 176.56 140.72 176.98 141.26C177.46 141.74 177.7 142.34 177.7 143.06C177.7 144.32 177.16 145.28 176.08 145.94C175 146.6 173.5 146.93 171.58 146.93C169.24 146.93 166.75 146.9 164.11 146.84C161.53 146.78 159.16 146.75 157 146.75C154.48 146.75 152.05 146.84 149.71 147.02C147.37 147.14 145.3 147.26 143.5 147.38C141.76 147.5 140.41 147.56 139.45 147.56ZM201.741 203.9C197.661 203.9 194.031 203.21 190.851 201.83C187.731 200.39 185.061 198.44 182.841 195.98C180.681 193.46 179.001 190.58 177.801 187.34C176.661 184.1 176.091 180.62 176.091 176.9C176.091 172.88 176.631 169.25 177.711 166.01C178.791 162.71 180.171 159.8 181.851 157.28C183.531 154.7 185.271 152.54 187.071 150.8C188.931 149.06 190.611 147.74 192.111 146.84C193.611 145.88 194.721 145.4 195.441 145.4C196.041 145.4 196.581 145.49 197.061 145.67C197.541 145.85 198.051 146.33 198.591 147.11C199.491 148.43 199.611 149.6 198.951 150.62C198.351 151.64 197.421 152.57 196.161 153.41C194.361 154.61 192.531 156.26 190.671 158.36C188.871 160.46 187.341 163.04 186.081 166.1C184.881 169.16 184.281 172.76 184.281 176.9C184.281 180.32 184.911 183.5 186.171 186.44C187.491 189.38 189.441 191.75 192.021 193.55C194.601 195.29 197.841 196.16 201.741 196.16C205.641 196.16 209.121 195.32 212.181 193.64C215.241 191.96 217.641 189.62 219.381 186.62C221.181 183.56 222.081 180.02 222.081 176C222.081 172.58 221.661 169.16 220.821 165.74C220.041 162.32 218.841 159.17 217.221 156.29C215.601 153.41 213.621 151.13 211.281 149.45C209.001 147.71 206.331 146.84 203.271 146.84C201.891 146.84 200.931 147.35 200.391 148.37C199.851 149.33 199.581 150.56 199.581 152.06C199.581 153.32 199.251 154.31 198.591 155.03C197.991 155.69 197.241 156.02 196.341 156.02C195.561 156.02 194.811 155.81 194.091 155.39C193.431 154.97 192.861 154.34 192.381 153.5C191.961 152.6 191.751 151.55 191.751 150.35C191.751 148.31 192.141 146.45 192.921 144.77C193.761 143.09 194.991 141.71 196.611 140.63C198.231 139.55 200.151 139.01 202.371 139.01C206.811 139.01 210.741 140 214.161 141.98C217.641 143.9 220.581 146.57 222.981 149.99C225.381 153.41 227.181 157.37 228.381 161.87C229.641 166.31 230.271 171.02 230.271 176C230.271 179.9 229.581 183.53 228.201 186.89C226.881 190.25 224.931 193.22 222.351 195.8C219.831 198.32 216.831 200.3 213.351 201.74C209.871 203.18 206.001 203.9 201.741 203.9Z" fill="white"/>
</g>
<g filter="url(#filter1_i_4_19)">
<path d="M188.058 657.576C174.904 662.545 135.52 680.618 125.218 699.592C115.353 717.763 121.414 636.633 121.414 636.633C121.414 636.633 124.598 591.855 134.141 565.205C143.433 539.254 151.029 524.898 168.384 503.599C187.605 480.009 203.326 471.27 228.31 454.072C275.033 421.911 308.338 416.572 359.653 392.611C386.735 379.965 421.5 360.259 429.016 360.259C436.533 360.259 431.462 392.431 422.793 409.89C412.594 430.427 378.408 447.936 378.408 447.936C378.408 447.936 350.9 463.074 332.874 471.971C316.731 479.937 307.139 486.912 299.622 490.391C292.105 493.87 289.902 499.347 292.105 503.599C297.24 513.512 321.372 506.485 321.372 506.485L346.498 498.005L390.637 475.64C390.637 475.64 416.334 457.433 431.006 443.642C449.454 426.301 473.346 394.44 473.346 394.44L510.931 337.783C510.931 337.783 542.447 285.72 556.972 269.695C571.497 253.671 583.752 248.564 587.04 260.491C590.329 272.419 590.937 276.554 582.481 309.853C574.024 343.151 560.957 372.477 560.957 372.477C560.957 372.477 544.05 407.345 530.709 428.172C516.113 450.959 488.873 483.338 488.873 483.338L452.97 521.907C452.97 521.907 416.839 554.824 390.637 573.865C357.638 597.845 337.044 608.849 299.622 624.861C257.844 642.737 201.213 652.606 188.058 657.576Z" fill="#FFDE59"/>
</g>
<g filter="url(#filter2_d_4_19)">
<path d="M129.33 651.51C128.45 651.51 127.643 651.143 126.91 650.41C126.25 649.603 125.7 648.577 125.26 647.33C124.893 646.083 124.71 644.727 124.71 643.26C124.71 639.3 125.553 635.047 127.24 630.5C129 625.88 131.347 621.663 134.28 617.85C135.893 615.723 137.213 614.367 138.24 613.78C139.267 613.193 140.367 612.9 141.54 612.9C142.567 612.9 143.41 613.23 144.07 613.89C144.803 614.477 145.353 615.21 145.72 616.09C146.087 616.97 146.27 617.85 146.27 618.73C146.27 619.39 146.123 620.087 145.83 620.82C145.537 621.48 144.84 622.47 143.74 623.79C140.807 627.31 138.643 630.793 137.25 634.24C135.93 637.613 134.94 640.84 134.28 643.92C133.693 646.78 133.033 648.76 132.3 649.86C131.567 650.96 130.577 651.51 129.33 651.51ZM155.18 656.57C154.3 656.57 153.53 656.203 152.87 655.47C152.21 654.737 151.66 653.783 151.22 652.61C150.853 651.363 150.67 650.043 150.67 648.65C150.67 645.497 151.22 642.013 152.32 638.2C153.42 634.387 155.033 631.013 157.16 628.08C158.627 626.027 159.873 624.707 160.9 624.12C161.927 623.533 163.027 623.24 164.2 623.24C165.227 623.24 166.07 623.497 166.73 624.01C167.463 624.523 168.013 625.183 168.38 625.99C168.747 626.723 168.93 627.42 168.93 628.08C168.93 628.813 168.783 629.583 168.49 630.39C168.197 631.197 167.463 632.37 166.29 633.91C164.237 636.55 162.77 639.153 161.89 641.72C161.083 644.287 160.423 646.707 159.91 648.98C159.25 651.84 158.59 653.82 157.93 654.92C157.27 656.02 156.353 656.57 155.18 656.57ZM235.885 703.1C233.611 703.1 231.815 702.073 230.495 700.02C229.248 697.893 228.331 694.41 227.745 689.57C227.231 684.657 226.975 678.057 226.975 669.77C226.975 664.27 227.048 659.063 227.195 654.15C227.341 649.237 227.488 644.727 227.635 640.62C227.781 636.44 227.855 632.81 227.855 629.73C227.855 627.97 228.221 626.687 228.955 625.88C229.761 625 230.751 624.56 231.925 624.56C233.611 624.56 234.968 625.513 235.995 627.42C237.095 629.327 237.645 632.113 237.645 635.78C237.645 640.253 237.571 644.983 237.425 649.97C237.351 654.883 237.241 659.65 237.095 664.27C237.021 668.817 236.985 672.85 236.985 676.37C236.985 678.643 237.095 680.917 237.315 683.19C237.535 685.39 237.791 687.663 238.085 690.01C238.378 692.357 238.708 694.923 239.075 697.71C239.368 699.397 239.148 700.717 238.415 701.67C237.755 702.623 236.911 703.1 235.885 703.1ZM188.475 703.32C186.861 703.32 185.395 702.55 184.075 701.01C182.828 699.397 182.241 696.647 182.315 692.76C182.315 688.947 182.315 685.207 182.315 681.54C182.388 677.8 182.425 674.023 182.425 670.21C182.425 666.323 182.425 662.29 182.425 658.11C182.498 653.93 182.535 649.457 182.535 644.69C182.535 639.923 182.535 634.753 182.535 629.18C182.535 627.493 182.901 626.21 183.635 625.33C184.368 624.45 185.468 624.01 186.935 624.01C188.548 624.01 189.905 624.963 191.005 626.87C192.105 628.703 192.655 631.6 192.655 635.56C192.655 641.573 192.618 647.513 192.545 653.38C192.471 659.247 192.435 664.93 192.435 670.43C192.435 675.857 192.398 680.99 192.325 685.83C192.325 690.67 192.325 695.07 192.325 699.03C192.325 700.277 191.958 701.303 191.225 702.11C190.491 702.917 189.575 703.32 188.475 703.32ZM183.525 669.66C181.471 669.66 179.858 669.44 178.685 669C177.511 668.487 176.668 667.863 176.155 667.13C175.715 666.323 175.495 665.48 175.495 664.6C175.495 663.793 175.715 663.023 176.155 662.29C176.668 661.557 177.621 661.117 179.015 660.97C185.615 659.943 192.031 659.137 198.265 658.55C204.498 657.963 210.731 657.56 216.965 657.34C223.198 657.047 229.468 656.9 235.775 656.9C237.901 656.9 239.588 657.193 240.835 657.78C242.155 658.293 243.108 658.953 243.695 659.76C244.355 660.567 244.685 661.373 244.685 662.18C244.685 663.353 244.245 664.307 243.365 665.04C242.558 665.7 241.421 666.03 239.955 666.03C231.081 666.03 223.491 666.213 217.185 666.58C210.878 666.947 205.561 667.387 201.235 667.9C196.981 668.34 193.461 668.743 190.675 669.11C187.888 669.477 185.505 669.66 183.525 669.66ZM316.927 702.99C315.314 702.99 313.957 702.33 312.857 701.01C311.831 699.617 310.694 697.307 309.447 694.08C308.347 691.367 307.284 688.067 306.257 684.18C305.231 680.293 304.314 676.187 303.507 671.86C302.701 667.533 302.077 663.427 301.637 659.54C301.124 654.773 300.647 650.703 300.207 647.33C299.767 643.957 299.291 641.28 298.777 639.3C298.264 637.247 297.604 635.743 296.797 634.79C296.064 633.837 295.037 633.36 293.717 633.36C291.737 633.36 289.501 634.937 287.007 638.09C284.587 641.17 282.167 645.57 279.747 651.29C277.327 657.01 275.054 663.867 272.927 671.86C270.801 679.853 269.077 688.763 267.757 698.59C267.537 699.983 267.134 701.047 266.547 701.78C266.034 702.513 265.227 702.88 264.127 702.88C262.441 702.88 261.121 702.33 260.167 701.23C259.287 700.057 258.847 698.003 258.847 695.07C258.847 690.817 259.251 686.6 260.057 682.42C260.937 678.167 261.964 673.913 263.137 669.66C264.311 665.407 265.374 661.117 266.327 656.79C267.281 652.39 267.867 647.99 268.087 643.59C268.161 642.343 268.454 641.39 268.967 640.73C269.481 639.997 270.287 639.63 271.387 639.63C272.414 639.63 273.404 639.923 274.357 640.51C275.311 641.097 276.191 642.013 276.997 643.26L272.927 644.36C276.301 637.54 279.637 632.443 282.937 629.07C286.311 625.623 289.977 623.9 293.937 623.9C298.191 623.9 301.381 625.147 303.507 627.64C305.634 630.133 307.211 633.983 308.237 639.19C309.337 644.323 310.291 650.997 311.097 659.21C311.831 665.297 312.711 670.54 313.737 674.94C314.764 679.34 315.791 683.08 316.817 686.16C317.844 689.24 318.724 691.807 319.457 693.86C320.191 695.913 320.557 697.71 320.557 699.25C320.557 701.743 319.347 702.99 316.927 702.99ZM258.077 681.43C256.464 681.43 255.254 681.1 254.447 680.44C253.714 679.707 253.347 678.753 253.347 677.58C253.347 676.627 253.641 675.857 254.227 675.27C254.814 674.61 255.804 674.023 257.197 673.51C265.117 670.503 274.211 668.303 284.477 666.91C294.744 665.517 305.817 664.82 317.697 664.82C320.264 664.82 321.987 665.187 322.867 665.92C323.821 666.653 324.297 667.717 324.297 669.11C324.297 670.577 323.601 671.823 322.207 672.85C320.814 673.803 318.761 674.28 316.047 674.28C307.614 674.28 300.537 674.537 294.817 675.05C289.097 675.49 284.294 676.077 280.407 676.81C276.594 677.47 273.404 678.167 270.837 678.9C268.271 679.633 265.997 680.257 264.017 680.77C262.111 681.21 260.131 681.43 258.077 681.43ZM386.351 696.61C385.618 691.917 384.738 687.077 383.711 682.09C382.758 677.03 381.658 672.08 380.411 667.24C379.164 662.4 377.881 657.89 376.561 653.71C375.314 649.457 374.068 645.717 372.821 642.49C371.574 639.19 370.438 636.623 369.411 634.79L371.281 634.24C369.448 637.393 367.724 640.877 366.111 644.69C364.498 648.43 362.994 652.17 361.601 655.91C360.208 659.65 358.924 663.133 357.751 666.36C356.944 668.633 356.064 671.163 355.111 673.95C354.231 676.737 353.314 679.633 352.361 682.64C351.408 685.647 350.491 688.507 349.611 691.22C348.804 693.933 348.108 696.28 347.521 698.26L337.841 696.5C339.161 692.76 340.444 688.837 341.691 684.73C343.011 680.623 344.294 676.59 345.541 672.63C346.861 668.67 348.108 665.077 349.281 661.85C351.554 655.69 353.718 650.19 355.771 645.35C357.824 640.437 359.731 636.33 361.491 633.03C362.444 631.197 363.324 629.62 364.131 628.3C364.938 626.98 365.854 625.953 366.881 625.22C367.908 624.487 369.154 624.12 370.621 624.12C371.794 624.12 372.931 624.487 374.031 625.22C375.131 625.88 376.158 626.87 377.111 628.19C378.064 629.437 378.908 630.903 379.641 632.59C380.448 634.423 381.438 637.027 382.611 640.4C383.784 643.7 384.994 647.513 386.241 651.84C387.561 656.093 388.844 660.677 390.091 665.59C391.411 670.503 392.621 675.49 393.721 680.55C394.821 685.537 395.738 690.377 396.471 695.07L386.351 696.61ZM402.521 722.79C400.908 722.79 399.624 722.13 398.671 720.81C397.718 719.49 397.241 717.803 397.241 715.75C397.241 714.65 397.241 713.22 397.241 711.46C397.314 709.773 397.388 708.013 397.461 706.18C397.534 704.42 397.571 702.843 397.571 701.45L400.651 702.99C399.258 702.843 397.388 702.697 395.041 702.55C392.768 702.477 390.274 702.367 387.561 702.22C384.921 702.147 382.244 702.073 379.531 702C376.891 702 374.471 702 372.271 702C364.131 702 356.834 702.073 350.381 702.22C344.001 702.44 338.941 702.807 335.201 703.32L336.741 698.26C336.814 700.46 336.998 702.587 337.291 704.64C337.584 706.767 337.841 708.71 338.061 710.47C338.354 712.303 338.501 713.917 338.501 715.31C338.501 716.63 338.244 717.73 337.731 718.61C337.291 719.563 336.631 720.26 335.751 720.7C334.944 721.213 334.101 721.47 333.221 721.47C332.488 721.47 331.864 721.287 331.351 720.92C330.911 720.627 330.508 720.113 330.141 719.38C329.848 718.72 329.554 717.877 329.261 716.85C329.114 716.263 328.858 715.163 328.491 713.55C328.124 711.937 327.831 710.103 327.611 708.05C327.391 706.07 327.281 704.09 327.281 702.11C327.281 700.35 327.574 698.883 328.161 697.71C328.748 696.537 329.701 695.62 331.021 694.96C332.341 694.3 334.101 693.933 336.301 693.86C337.181 693.86 338.501 693.823 340.261 693.75C342.094 693.603 344.514 693.493 347.521 693.42C350.601 693.273 354.488 693.163 359.181 693.09C363.948 693.017 369.741 692.98 376.561 692.98C380.081 692.98 383.308 693.017 386.241 693.09C389.174 693.09 391.704 693.127 393.831 693.2C396.031 693.2 397.681 693.273 398.781 693.42C401.201 693.713 403.071 694.227 404.391 694.96C405.711 695.693 406.628 696.72 407.141 698.04C407.728 699.36 408.021 701.047 408.021 703.1C408.021 705.08 407.948 707.023 407.801 708.93C407.728 710.91 407.618 712.633 407.471 714.1C407.324 715.567 407.214 716.667 407.141 717.4C406.921 719.453 406.334 720.847 405.381 721.58C404.501 722.387 403.548 722.79 402.521 722.79ZM417.806 636.44C416.119 636.44 414.799 636.037 413.846 635.23C412.966 634.423 412.526 633.36 412.526 632.04C412.526 631.013 412.929 630.06 413.736 629.18C414.543 628.227 415.899 627.603 417.806 627.31C421.326 626.723 425.433 626.21 430.126 625.77C434.819 625.33 439.696 625 444.756 624.78C449.889 624.487 454.839 624.34 459.606 624.34C462.026 624.34 463.713 624.597 464.666 625.11C465.619 625.623 466.096 626.577 466.096 627.97C466.096 629.877 465.069 631.38 463.016 632.48C460.963 633.58 458.139 634.13 454.546 634.13C449.779 634.13 445.673 634.203 442.226 634.35C438.853 634.497 435.993 634.68 433.646 634.9C431.299 635.12 429.246 635.377 427.486 635.67C425.726 635.89 424.076 636.073 422.536 636.22C421.069 636.367 419.493 636.44 417.806 636.44ZM440.136 695.84C438.303 695.84 436.799 695.07 435.626 693.53C434.453 691.99 433.866 689.937 433.866 687.37C433.866 680.99 434.013 674.757 434.306 668.67C434.673 662.583 435.003 656.753 435.296 651.18C435.589 645.607 435.736 640.547 435.736 636C435.736 634.24 435.993 632.92 436.506 632.04C437.093 631.087 438.046 630.61 439.366 630.61C441.053 630.61 442.483 631.417 443.656 633.03C444.903 634.57 445.526 636.477 445.526 638.75C445.526 642.05 445.379 646.34 445.086 651.62C444.793 656.9 444.463 662.95 444.096 669.77C443.803 676.517 443.656 683.85 443.656 691.77C443.656 694.483 442.483 695.84 440.136 695.84ZM419.676 703.21C417.183 703.21 415.349 702.77 414.176 701.89C413.076 700.937 412.526 699.727 412.526 698.26C412.526 697.233 412.819 696.353 413.406 695.62C414.066 694.887 415.093 694.447 416.486 694.3C419.199 694.007 421.876 693.787 424.516 693.64C427.156 693.42 429.833 693.237 432.546 693.09C435.259 692.943 438.046 692.833 440.906 692.76C443.766 692.687 446.699 692.65 449.706 692.65C452.786 692.577 455.976 692.54 459.276 692.54C461.109 692.54 462.503 692.723 463.456 693.09C464.409 693.457 465.069 693.933 465.436 694.52C465.876 695.033 466.096 695.693 466.096 696.5C466.096 697.967 465.363 699.25 463.896 700.35C462.503 701.45 460.156 702 456.856 702C451.209 702 445.929 702.073 441.016 702.22C436.176 702.44 431.923 702.66 428.256 702.88C424.663 703.1 421.803 703.21 419.676 703.21ZM476.189 702.77C475.383 702.77 474.686 702.55 474.099 702.11C473.586 701.67 473.183 701.12 472.889 700.46C472.669 699.8 472.559 699.14 472.559 698.48C472.559 697.527 473.329 696.353 474.869 694.96C476.483 693.493 478.536 691.807 481.029 689.9C483.596 687.993 486.309 685.757 489.169 683.19C491.883 680.697 494.376 678.24 496.649 675.82C498.923 673.327 501.159 670.723 503.359 668.01L504.349 672.08C499.143 671.2 494.706 669.917 491.039 668.23C487.373 666.47 484.403 664.417 482.129 662.07C479.929 659.723 478.316 657.193 477.289 654.48C476.336 651.767 475.859 649.053 475.859 646.34C475.859 643.7 476.556 641.06 477.949 638.42C479.343 635.707 481.469 633.25 484.329 631.05C487.263 628.85 490.929 627.09 495.329 625.77C499.803 624.377 505.083 623.68 511.169 623.68C514.469 623.68 517.403 624.01 519.969 624.67C522.536 625.33 524.553 626.467 526.019 628.08C527.559 629.693 528.329 631.967 528.329 634.9C528.329 635.78 528.219 637.54 527.999 640.18C527.853 642.747 527.633 645.79 527.339 649.31C527.119 652.83 526.899 656.533 526.679 660.42C526.533 664.233 526.459 667.9 526.459 671.42C526.459 675.16 526.643 678.9 527.009 682.64C527.376 686.38 527.743 689.643 528.109 692.43C528.476 695.217 528.659 697.05 528.659 697.93C528.659 698.737 528.513 699.543 528.219 700.35C527.999 701.157 527.596 701.817 527.009 702.33C526.423 702.843 525.689 703.1 524.809 703.1C523.123 703.1 521.729 702.367 520.629 700.9C519.529 699.433 518.759 697.563 518.319 695.29C518.246 694.85 518.063 693.493 517.769 691.22C517.476 688.873 517.219 686.05 516.999 682.75C516.779 679.377 516.669 675.967 516.669 672.52C516.669 668.707 516.743 664.71 516.889 660.53C517.036 656.277 517.219 652.17 517.439 648.21C517.733 644.25 517.989 640.803 518.209 637.87C518.503 634.863 518.723 632.737 518.869 631.49L520.079 636C518.906 635.34 517.403 634.753 515.569 634.24C513.809 633.653 511.206 633.36 507.759 633.36C505.486 633.36 503.066 633.617 500.499 634.13C498.006 634.57 495.659 635.34 493.459 636.44C491.259 637.467 489.463 638.823 488.069 640.51C486.676 642.197 485.979 644.177 485.979 646.45C485.979 651.07 488.033 655.03 492.139 658.33C496.319 661.63 502.149 663.903 509.629 665.15C511.023 665.37 511.939 665.81 512.379 666.47C512.893 667.13 513.149 667.973 513.149 669C513.149 669.733 512.563 670.943 511.389 672.63C510.289 674.243 508.859 676.077 507.099 678.13C505.413 680.11 503.616 682.09 501.709 684.07C499.876 685.977 498.153 687.663 496.539 689.13C493.973 691.403 491.369 693.603 488.729 695.73C486.163 697.857 483.779 699.58 481.579 700.9C479.379 702.147 477.583 702.77 476.189 702.77ZM544.699 654.26C543.526 654.26 542.573 653.93 541.839 653.27C541.106 652.61 540.739 651.693 540.739 650.52C540.739 649.053 541.143 647.44 541.949 645.68C542.756 643.847 543.709 641.793 544.809 639.52C545.983 637.247 547.046 634.643 547.999 631.71C549.026 628.703 549.759 625.33 550.199 621.59C550.493 618.29 551.079 615.98 551.959 614.66C552.913 613.34 554.196 612.68 555.809 612.68C557.569 612.68 558.999 613.267 560.099 614.44C561.273 615.613 561.859 617.007 561.859 618.62C561.859 620.673 561.566 623.02 560.979 625.66C560.466 628.3 559.696 631.05 558.669 633.91C557.643 636.77 556.469 639.557 555.149 642.27C553.903 644.91 552.546 647.33 551.079 649.53C549.906 651.143 548.806 652.353 547.779 653.16C546.826 653.893 545.799 654.26 544.699 654.26ZM572.749 655.47C571.576 655.47 570.623 655.177 569.889 654.59C569.229 654.003 568.899 653.16 568.899 652.06C568.899 650.74 569.193 649.42 569.779 648.1C570.439 646.707 571.209 645.167 572.089 643.48C572.969 641.72 573.813 639.593 574.619 637.1C575.426 634.607 576.013 631.6 576.379 628.08C576.746 625 577.369 623.02 578.249 622.14C579.129 621.187 580.156 620.71 581.329 620.71C583.016 620.71 584.373 621.223 585.399 622.25C586.499 623.277 587.049 624.89 587.049 627.09C587.049 630.463 586.389 634.277 585.069 638.53C583.823 642.71 581.806 646.89 579.019 651.07C577.993 652.683 576.966 653.82 575.939 654.48C574.913 655.14 573.849 655.47 572.749 655.47Z" fill="white"/>
</g>
<g filter="url(#filter3_i_4_19)">
<path d="M544.177 79.8981C557.771 75.3105 598.471 58.6278 609.117 41.1139C619.312 24.3404 613.049 99.2296 613.049 99.2296C613.049 99.2296 609.758 140.563 599.897 165.163C590.294 189.118 582.443 202.37 564.509 222.031C544.646 243.805 528.4 251.872 502.581 267.747C454.296 297.435 419.875 302.364 366.849 324.481C338.861 336.154 302.936 354.345 295.168 354.345C287.4 354.345 292.64 324.647 301.6 308.531C312.139 289.574 347.468 273.411 347.468 273.411C347.468 273.411 375.894 259.438 394.523 251.226C411.206 243.872 421.118 237.434 428.886 234.222C436.654 231.011 438.93 225.955 436.654 222.031C431.347 212.88 406.409 219.366 406.409 219.366L380.443 227.194L334.83 247.838C334.83 247.838 308.274 264.645 293.112 277.375C274.047 293.382 249.357 322.792 249.357 322.792L210.516 375.091C210.516 375.091 177.947 423.149 162.937 437.941C147.926 452.733 135.263 457.448 131.864 446.437C128.466 435.427 127.837 431.61 136.576 400.873C145.315 370.136 158.819 343.066 158.819 343.066C158.819 343.066 176.291 310.88 190.077 291.655C205.161 270.621 233.311 240.733 233.311 240.733L270.414 205.131C270.414 205.131 307.752 174.746 334.83 157.169C368.932 135.034 390.214 124.877 428.886 110.096C472.06 93.5951 530.583 84.4857 544.177 79.8981Z" fill="#014AAB"/>
</g>
<defs>
<filter id="filter0_d_4_19" x="134.41" y="139.01" width="107.861" height="77.8899" filterUnits="userSpaceOnUse" color-interpolation-filters="sRGB">
<feFlood flood-opacity="0" result="BackgroundImageFix"/>
<feColorMatrix in="SourceAlpha" type="matrix" values="0 0 0 0 0 0 0 0 0 0 0 0 0 0 0 0 0 0 127 0" result="hardAlpha"/>
<feOffset dx="9" dy="10"/>
<feGaussianBlur stdDeviation="1.5"/>
<feComposite in2="hardAlpha" operator="out"/>
<feColorMatrix type="matrix" values="0 0 0 0 0 0 0 0 0 0 0 0 0 0 0 0 0 0 0.25 0"/>
<feBlend mode="normal" in2="BackgroundImageFix" result="effect1_dropShadow_4_19"/>
<feBlend mode="normal" in="SourceGraphic" in2="effect1_dropShadow_4_19" result="shape"/>
</filter>
<filter id="filter1_i_4_19" x="117.571" y="253.937" width="471.722" height="458.308" filterUnits="userSpaceOnUse" color-interpolation-filters="sRGB">
<feFlood flood-opacity="0" result="BackgroundImageFix"/>
<feBlend mode="normal" in="SourceGraphic" in2="BackgroundImageFix" result="shape"/>
<feColorMatrix in="SourceAlpha" type="matrix" values="0 0 0 0 0 0 0 0 0 0 0 0 0 0 0 0 0 0 127 0" result="hardAlpha"/>
<feOffset dx="-2" dy="10"/>
<feGaussianBlur stdDeviation="10"/>
<feComposite in2="hardAlpha" operator="arithmetic" k2="-1" k3="1"/>
<feColorMatrix type="matrix" values="0 0 0 0 0 0 0 0 0 0 0 0 0 0 0 0 0 0 0.25 0"/>
<feBlend mode="normal" in2="shape" result="effect1_innerShadow_4_19"/>
</filter>
<filter id="filter2_d_4_19" x="124.71" y="612.68" width="474.339" height="123.11" filterUnits="userSpaceOnUse" color-interpolation-filters="sRGB">
<feFlood flood-opacity="0" result="BackgroundImageFix"/>
<feColorMatrix in="SourceAlpha" type="matrix" values="0 0 0 0 0 0 0 0 0 0 0 0 0 0 0 0 0 0 127 0" result="hardAlpha"/>
<feOffset dx="9" dy="10"/>
<feGaussianBlur stdDeviation="1.5"/>
<feComposite in2="hardAlpha" operator="out"/>
<feColorMatrix type="matrix" values="0 0 0 0 0 0 0 0 0 0 0 0 0 0 0 0 0 0 0.25 0"/>
<feBlend mode="normal" in2="BackgroundImageFix" result="effect1_dropShadow_4_19"/>
<feBlend mode="normal" in="SourceGraphic" in2="effect1_dropShadow_4_19" result="shape"/>
</filter>
<filter id="filter3_i_4_19" x="127.536" y="38.665" width="487.417" height="423.823" filterUnits="userSpaceOnUse" color-interpolation-filters="sRGB">
<feFlood flood-opacity="0" result="BackgroundImageFix"/>
<feBlend mode="normal" in="SourceGraphic" in2="BackgroundImageFix" result="shape"/>
<feColorMatrix in="SourceAlpha" type="matrix" values="0 0 0 0 0 0 0 0 0 0 0 0 0 0 0 0 0 0 127 0" result="hardAlpha"/>
<feOffset dx="-2" dy="10"/>
<feGaussianBlur stdDeviation="10"/>
<feComposite in2="hardAlpha" operator="arithmetic" k2="-1" k3="1"/>
<feColorMatrix type="matrix" values="0 0 0 0 0 0 0 0 0 0 0 0 0 0 0 0 0 0 0.25 0"/>
<feBlend mode="normal" in2="shape" result="effect1_innerShadow_4_19"/>
</filter>
</defs>
</svg>
