<svg width="1144" height="1143" viewBox="0 0 1144 1143" fill="none" xmlns="http://www.w3.org/2000/svg">
<g filter="url(#filter0_f_4_19)">
<rect x="200" y="200" width="744" height="743" rx="336" fill="black" fill-opacity="0.47"/>
</g>
<g filter="url(#filter1_d_4_19)">
<path d="M343.77 403.9C342.51 403.9 341.46 403.27 340.62 402.01C339.78 400.69 339.36 399.22 339.36 397.6C339.36 396.7 339.45 394.99 339.63 392.47C339.81 389.89 339.96 386.77 340.08 383.11C340.26 379.45 340.35 375.55 340.35 371.41C340.35 368.05 340.32 364.84 340.26 361.78C340.2 358.66 340.11 355.72 339.99 352.96C339.93 350.14 339.81 347.47 339.63 344.95L348.09 344.41C348.27 347.77 348.39 351.82 348.45 356.56C348.51 361.3 348.51 366.19 348.45 371.23C348.45 375.73 348.39 379.93 348.27 383.83C348.21 387.67 348.12 390.97 348 393.73C347.88 396.43 347.76 398.41 347.64 399.67C347.52 400.87 347.13 401.89 346.47 402.73C345.81 403.51 344.91 403.9 343.77 403.9ZM339.45 347.56C338.43 347.56 337.56 347.35 336.84 346.93C336.12 346.51 335.52 345.97 335.04 345.31C334.62 344.59 334.41 343.87 334.41 343.15C334.41 342.07 334.86 341.29 335.76 340.81C336.72 340.33 338.37 340 340.71 339.82C341.61 339.76 343.11 339.73 345.21 339.73C347.37 339.67 349.83 339.64 352.59 339.64C355.41 339.58 358.35 339.52 361.41 339.46C364.47 339.4 367.41 339.37 370.23 339.37C372.21 339.37 373.71 339.55 374.73 339.91C375.81 340.27 376.56 340.72 376.98 341.26C377.46 341.74 377.7 342.34 377.7 343.06C377.7 344.32 377.16 345.28 376.08 345.94C375 346.6 373.5 346.93 371.58 346.93C369.24 346.93 366.75 346.9 364.11 346.84C361.53 346.78 359.16 346.75 357 346.75C354.48 346.75 352.05 346.84 349.71 347.02C347.37 347.14 345.3 347.26 343.5 347.38C341.76 347.5 340.41 347.56 339.45 347.56ZM401.741 403.9C397.661 403.9 394.031 403.21 390.851 401.83C387.731 400.39 385.061 398.44 382.841 395.98C380.681 393.46 379.001 390.58 377.801 387.34C376.661 384.1 376.091 380.62 376.091 376.9C376.091 372.88 376.631 369.25 377.711 366.01C378.791 362.71 380.171 359.8 381.851 357.28C383.531 354.7 385.271 352.54 387.071 350.8C388.931 349.06 390.611 347.74 392.111 346.84C393.611 345.88 394.721 345.4 395.441 345.4C396.041 345.4 396.581 345.49 397.061 345.67C397.541 345.85 398.051 346.33 398.591 347.11C399.491 348.43 399.611 349.6 398.951 350.62C398.351 351.64 397.421 352.57 396.161 353.41C394.361 354.61 392.531 356.26 390.671 358.36C388.871 360.46 387.341 363.04 386.081 366.1C384.881 369.16 384.281 372.76 384.281 376.9C384.281 380.32 384.911 383.5 386.171 386.44C387.491 389.38 389.441 391.75 392.021 393.55C394.601 395.29 397.841 396.16 401.741 396.16C405.641 396.16 409.121 395.32 412.181 393.64C415.241 391.96 417.641 389.62 419.381 386.62C421.181 383.56 422.081 380.02 422.081 376C422.081 372.58 421.661 369.16 420.821 365.74C420.041 362.32 418.841 359.17 417.221 356.29C415.601 353.41 413.621 351.13 411.281 349.45C409.001 347.71 406.331 346.84 403.271 346.84C401.891 346.84 400.931 347.35 400.391 348.37C399.851 349.33 399.581 350.56 399.581 352.06C399.581 353.32 399.251 354.31 398.591 355.03C397.991 355.69 397.241 356.02 396.341 356.02C395.561 356.02 394.811 355.81 394.091 355.39C393.431 354.97 392.861 354.34 392.381 353.5C391.961 352.6 391.751 351.55 391.751 350.35C391.751 348.31 392.141 346.45 392.921 344.77C393.761 343.09 394.991 341.71 396.611 340.63C398.231 339.55 400.151 339.01 402.371 339.01C406.811 339.01 410.741 340 414.161 341.98C417.641 343.9 420.581 346.57 422.981 349.99C425.381 353.41 427.181 357.37 428.381 361.87C429.641 366.31 430.271 371.02 430.271 376C430.271 379.9 429.581 383.53 428.201 386.89C426.881 390.25 424.931 393.22 422.351 395.8C419.831 398.32 416.831 400.3 413.351 401.74C409.871 403.18 406.001 403.9 401.741 403.9Z" fill="white"/>
</g>
<g filter="url(#filter2_i_4_19)">
<path d="M388.058 857.576C374.904 862.545 335.52 880.618 325.218 899.592C315.353 917.763 321.414 836.633 321.414 836.633C321.414 836.633 324.598 791.855 334.141 765.205C343.433 739.254 351.029 724.898 368.384 703.599C387.605 680.009 403.326 671.27 428.31 654.072C475.033 621.911 508.338 616.572 559.653 592.611C586.735 579.965 621.5 560.259 629.016 560.259C636.533 560.259 631.462 592.431 622.793 609.89C612.594 630.427 578.408 647.936 578.408 647.936C578.408 647.936 550.9 663.074 532.874 671.971C516.731 679.937 507.139 686.912 499.622 690.391C492.105 693.87 489.902 699.347 492.105 703.599C497.24 713.512 521.372 706.485 521.372 706.485L546.498 698.005L590.637 675.64C590.637 675.64 616.334 657.433 631.006 643.642C649.454 626.301 673.346 594.44 673.346 594.44L710.931 537.783C710.931 537.783 742.447 485.72 756.972 469.695C771.497 453.671 783.752 448.564 787.04 460.491C790.329 472.419 790.937 476.554 782.481 509.853C774.024 543.151 760.957 572.477 760.957 572.477C760.957 572.477 744.05 607.345 730.709 628.172C716.113 650.959 688.873 683.338 688.873 683.338L652.97 721.907C652.97 721.907 616.839 754.824 590.637 773.865C557.638 797.845 537.044 808.849 499.622 824.861C457.844 842.737 401.213 852.606 388.058 857.576Z" fill="#FFDE59"/>
</g>
<g filter="url(#filter3_d_4_19)">
<path d="M329.33 851.51C328.45 851.51 327.643 851.143 326.91 850.41C326.25 849.603 325.7 848.577 325.26 847.33C324.893 846.083 324.71 844.727 324.71 843.26C324.71 839.3 325.553 835.047 327.24 830.5C329 825.88 331.347 821.663 334.28 817.85C335.893 815.723 337.213 814.367 338.24 813.78C339.267 813.193 340.367 812.9 341.54 812.9C342.567 812.9 343.41 813.23 344.07 813.89C344.803 814.477 345.353 815.21 345.72 816.09C346.087 816.97 346.27 817.85 346.27 818.73C346.27 819.39 346.123 820.087 345.83 820.82C345.537 821.48 344.84 822.47 343.74 823.79C340.807 827.31 338.643 830.793 337.25 834.24C335.93 837.613 334.94 840.84 334.28 843.92C333.693 846.78 333.033 848.76 332.3 849.86C331.567 850.96 330.577 851.51 329.33 851.51ZM355.18 856.57C354.3 856.57 353.53 856.203 352.87 855.47C352.21 854.737 351.66 853.783 351.22 852.61C350.853 851.363 350.67 850.043 350.67 848.65C350.67 845.497 351.22 842.013 352.32 838.2C353.42 834.387 355.033 831.013 357.16 828.08C358.627 826.027 359.873 824.707 360.9 824.12C361.927 823.533 363.027 823.24 364.2 823.24C365.227 823.24 366.07 823.497 366.73 824.01C367.463 824.523 368.013 825.183 368.38 825.99C368.747 826.723 368.93 827.42 368.93 828.08C368.93 828.813 368.783 829.583 368.49 830.39C368.197 831.197 367.463 832.37 366.29 833.91C364.237 836.55 362.77 839.153 361.89 841.72C361.083 844.287 360.423 846.707 359.91 848.98C359.25 851.84 358.59 853.82 357.93 854.92C357.27 856.02 356.353 856.57 355.18 856.57ZM435.885 903.1C433.611 903.1 431.815 902.073 430.495 900.02C429.248 897.893 428.331 894.41 427.745 889.57C427.231 884.657 426.975 878.057 426.975 869.77C426.975 864.27 427.048 859.063 427.195 854.15C427.341 849.237 427.488 844.727 427.635 840.62C427.781 836.44 427.855 832.81 427.855 829.73C427.855 827.97 428.221 826.687 428.955 825.88C429.761 825 430.751 824.56 431.925 824.56C433.611 824.56 434.968 825.513 435.995 827.42C437.095 829.327 437.645 832.113 437.645 835.78C437.645 840.253 437.571 844.983 437.425 849.97C437.351 854.883 437.241 859.65 437.095 864.27C437.021 868.817 436.985 872.85 436.985 876.37C436.985 878.643 437.095 880.917 437.315 883.19C437.535 885.39 437.791 887.663 438.085 890.01C438.378 892.357 438.708 894.923 439.075 897.71C439.368 899.397 439.148 900.717 438.415 901.67C437.755 902.623 436.911 903.1 435.885 903.1ZM388.475 903.32C386.861 903.32 385.395 902.55 384.075 901.01C382.828 899.397 382.241 896.647 382.315 892.76C382.315 888.947 382.315 885.207 382.315 881.54C382.388 877.8 382.425 874.023 382.425 870.21C382.425 866.323 382.425 862.29 382.425 858.11C382.498 853.93 382.535 849.457 382.535 844.69C382.535 839.923 382.535 834.753 382.535 829.18C382.535 827.493 382.901 826.21 383.635 825.33C384.368 824.45 385.468 824.01 386.935 824.01C388.548 824.01 389.905 824.963 391.005 826.87C392.105 828.703 392.655 831.6 392.655 835.56C392.655 841.573 392.618 847.513 392.545 853.38C392.471 859.247 392.435 864.93 392.435 870.43C392.435 875.857 392.398 880.99 392.325 885.83C392.325 890.67 392.325 895.07 392.325 899.03C392.325 900.277 391.958 901.303 391.225 902.11C390.491 902.917 389.575 903.32 388.475 903.32ZM383.525 869.66C381.471 869.66 379.858 869.44 378.685 869C377.511 868.487 376.668 867.863 376.155 867.13C375.715 866.323 375.495 865.48 375.495 864.6C375.495 863.793 375.715 863.023 376.155 862.29C376.668 861.557 377.621 861.117 379.015 860.97C385.615 859.943 392.031 859.137 398.265 858.55C404.498 857.963 410.731 857.56 416.965 857.34C423.198 857.047 429.468 856.9 435.775 856.9C437.901 856.9 439.588 857.193 440.835 857.78C442.155 858.293 443.108 858.953 443.695 859.76C444.355 860.567 444.685 861.373 444.685 862.18C444.685 863.353 444.245 864.307 443.365 865.04C442.558 865.7 441.421 866.03 439.955 866.03C431.081 866.03 423.491 866.213 417.185 866.58C410.878 866.947 405.561 867.387 401.235 867.9C396.981 868.34 393.461 868.743 390.675 869.11C387.888 869.477 385.505 869.66 383.525 869.66ZM516.927 902.99C515.314 902.99 513.957 902.33 512.857 901.01C511.831 899.617 510.694 897.307 509.447 894.08C508.347 891.367 507.284 888.067 506.257 884.18C505.231 880.293 504.314 876.187 503.507 871.86C502.701 867.533 502.077 863.427 501.637 859.54C501.124 854.773 500.647 850.703 500.207 847.33C499.767 843.957 499.291 841.28 498.777 839.3C498.264 837.247 497.604 835.743 496.797 834.79C496.064 833.837 495.037 833.36 493.717 833.36C491.737 833.36 489.501 834.937 487.007 838.09C484.587 841.17 482.167 845.57 479.747 851.29C477.327 857.01 475.054 863.867 472.927 871.86C470.801 879.853 469.077 888.763 467.757 898.59C467.537 899.983 467.134 901.047 466.547 901.78C466.034 902.513 465.227 902.88 464.127 902.88C462.441 902.88 461.121 902.33 460.167 901.23C459.287 900.057 458.847 898.003 458.847 895.07C458.847 890.817 459.251 886.6 460.057 882.42C460.937 878.167 461.964 873.913 463.137 869.66C464.311 865.407 465.374 861.117 466.327 856.79C467.281 852.39 467.867 847.99 468.087 843.59C468.161 842.343 468.454 841.39 468.967 840.73C469.481 839.997 470.287 839.63 471.387 839.63C472.414 839.63 473.404 839.923 474.357 840.51C475.311 841.097 476.191 842.013 476.997 843.26L472.927 844.36C476.301 837.54 479.637 832.443 482.937 829.07C486.311 825.623 489.977 823.9 493.937 823.9C498.191 823.9 501.381 825.147 503.507 827.64C505.634 830.133 507.211 833.983 508.237 839.19C509.337 844.323 510.291 850.997 511.097 859.21C511.831 865.297 512.711 870.54 513.737 874.94C514.764 879.34 515.791 883.08 516.817 886.16C517.844 889.24 518.724 891.807 519.457 893.86C520.191 895.913 520.557 897.71 520.557 899.25C520.557 901.743 519.347 902.99 516.927 902.99ZM458.077 881.43C456.464 881.43 455.254 881.1 454.447 880.44C453.714 879.707 453.347 878.753 453.347 877.58C453.347 876.627 453.641 875.857 454.227 875.27C454.814 874.61 455.804 874.023 457.197 873.51C465.117 870.503 474.211 868.303 484.477 866.91C494.744 865.517 505.817 864.82 517.697 864.82C520.264 864.82 521.987 865.187 522.867 865.92C523.821 866.653 524.297 867.717 524.297 869.11C524.297 870.577 523.601 871.823 522.207 872.85C520.814 873.803 518.761 874.28 516.047 874.28C507.614 874.28 500.537 874.537 494.817 875.05C489.097 875.49 484.294 876.077 480.407 876.81C476.594 877.47 473.404 878.167 470.837 878.9C468.271 879.633 465.997 880.257 464.017 880.77C462.111 881.21 460.131 881.43 458.077 881.43ZM586.351 896.61C585.618 891.917 584.738 887.077 583.711 882.09C582.758 877.03 581.658 872.08 580.411 867.24C579.164 862.4 577.881 857.89 576.561 853.71C575.314 849.457 574.068 845.717 572.821 842.49C571.574 839.19 570.438 836.623 569.411 834.79L571.281 834.24C569.448 837.393 567.724 840.877 566.111 844.69C564.498 848.43 562.994 852.17 561.601 855.91C560.208 859.65 558.924 863.133 557.751 866.36C556.944 868.633 556.064 871.163 555.111 873.95C554.231 876.737 553.314 879.633 552.361 882.64C551.408 885.647 550.491 888.507 549.611 891.22C548.804 893.933 548.108 896.28 547.521 898.26L537.841 896.5C539.161 892.76 540.444 888.837 541.691 884.73C543.011 880.623 544.294 876.59 545.541 872.63C546.861 868.67 548.108 865.077 549.281 861.85C551.554 855.69 553.718 850.19 555.771 845.35C557.824 840.437 559.731 836.33 561.491 833.03C562.444 831.197 563.324 829.62 564.131 828.3C564.938 826.98 565.854 825.953 566.881 825.22C567.908 824.487 569.154 824.12 570.621 824.12C571.794 824.12 572.931 824.487 574.031 825.22C575.131 825.88 576.158 826.87 577.111 828.19C578.064 829.437 578.908 830.903 579.641 832.59C580.448 834.423 581.438 837.027 582.611 840.4C583.784 843.7 584.994 847.513 586.241 851.84C587.561 856.093 588.844 860.677 590.091 865.59C591.411 870.503 592.621 875.49 593.721 880.55C594.821 885.537 595.738 890.377 596.471 895.07L586.351 896.61ZM602.521 922.79C600.908 922.79 599.624 922.13 598.671 920.81C597.718 919.49 597.241 917.803 597.241 915.75C597.241 914.65 597.241 913.22 597.241 911.46C597.314 909.773 597.388 908.013 597.461 906.18C597.534 904.42 597.571 902.843 597.571 901.45L600.651 902.99C599.258 902.843 597.388 902.697 595.041 902.55C592.768 902.477 590.274 902.367 587.561 902.22C584.921 902.147 582.244 902.073 579.531 902C576.891 902 574.471 902 572.271 902C564.131 902 556.834 902.073 550.381 902.22C544.001 902.44 538.941 902.807 535.201 903.32L536.741 898.26C536.814 900.46 536.998 902.587 537.291 904.64C537.584 906.767 537.841 908.71 538.061 910.47C538.354 912.303 538.501 913.917 538.501 915.31C538.501 916.63 538.244 917.73 537.731 918.61C537.291 919.563 536.631 920.26 535.751 920.7C534.944 921.213 534.101 921.47 533.221 921.47C532.488 921.47 531.864 921.287 531.351 920.92C530.911 920.627 530.508 920.113 530.141 919.38C529.848 918.72 529.554 917.877 529.261 916.85C529.114 916.263 528.858 915.163 528.491 913.55C528.124 911.937 527.831 910.103 527.611 908.05C527.391 906.07 527.281 904.09 527.281 902.11C527.281 900.35 527.574 898.883 528.161 897.71C528.748 896.537 529.701 895.62 531.021 894.96C532.341 894.3 534.101 893.933 536.301 893.86C537.181 893.86 538.501 893.823 540.261 893.75C542.094 893.603 544.514 893.493 547.521 893.42C550.601 893.273 554.488 893.163 559.181 893.09C563.948 893.017 569.741 892.98 576.561 892.98C580.081 892.98 583.308 893.017 586.241 893.09C589.174 893.09 591.704 893.127 593.831 893.2C596.031 893.2 597.681 893.273 598.781 893.42C601.201 893.713 603.071 894.227 604.391 894.96C605.711 895.693 606.628 896.72 607.141 898.04C607.728 899.36 608.021 901.047 608.021 903.1C608.021 905.08 607.948 907.023 607.801 908.93C607.728 910.91 607.618 912.633 607.471 914.1C607.324 915.567 607.214 916.667 607.141 917.4C606.921 919.453 606.334 920.847 605.381 921.58C604.501 922.387 603.548 922.79 602.521 922.79ZM617.806 836.44C616.119 836.44 614.799 836.037 613.846 835.23C612.966 834.423 612.526 833.36 612.526 832.04C612.526 831.013 612.929 830.06 613.736 829.18C614.543 828.227 615.899 827.603 617.806 827.31C621.326 826.723 625.433 826.21 630.126 825.77C634.819 825.33 639.696 825 644.756 824.78C649.889 824.487 654.839 824.34 659.606 824.34C662.026 824.34 663.713 824.597 664.666 825.11C665.619 825.623 666.096 826.577 666.096 827.97C666.096 829.877 665.069 831.38 663.016 832.48C660.963 833.58 658.139 834.13 654.546 834.13C649.779 834.13 645.673 834.203 642.226 834.35C638.853 834.497 635.993 834.68 633.646 834.9C631.299 835.12 629.246 835.377 627.486 835.67C625.726 835.89 624.076 836.073 622.536 836.22C621.069 836.367 619.493 836.44 617.806 836.44ZM640.136 895.84C638.303 895.84 636.799 895.07 635.626 893.53C634.453 891.99 633.866 889.937 633.866 887.37C633.866 880.99 634.013 874.757 634.306 868.67C634.673 862.583 635.003 856.753 635.296 851.18C635.589 845.607 635.736 840.547 635.736 836C635.736 834.24 635.993 832.92 636.506 832.04C637.093 831.087 638.046 830.61 639.366 830.61C641.053 830.61 642.483 831.417 643.656 833.03C644.903 834.57 645.526 836.477 645.526 838.75C645.526 842.05 645.379 846.34 645.086 851.62C644.793 856.9 644.463 862.95 644.096 869.77C643.803 876.517 643.656 883.85 643.656 891.77C643.656 894.483 642.483 895.84 640.136 895.84ZM619.676 903.21C617.183 903.21 615.349 902.77 614.176 901.89C613.076 900.937 612.526 899.727 612.526 898.26C612.526 897.233 612.819 896.353 613.406 895.62C614.066 894.887 615.093 894.447 616.486 894.3C619.199 894.007 621.876 893.787 624.516 893.64C627.156 893.42 629.833 893.237 632.546 893.09C635.259 892.943 638.046 892.833 640.906 892.76C643.766 892.687 646.699 892.65 649.706 892.65C652.786 892.577 655.976 892.54 659.276 892.54C661.109 892.54 662.503 892.723 663.456 893.09C664.409 893.457 665.069 893.933 665.436 894.52C665.876 895.033 666.096 895.693 666.096 896.5C666.096 897.967 665.363 899.25 663.896 900.35C662.503 901.45 660.156 902 656.856 902C651.209 902 645.929 902.073 641.016 902.22C636.176 902.44 631.923 902.66 628.256 902.88C624.663 903.1 621.803 903.21 619.676 903.21ZM676.189 902.77C675.383 902.77 674.686 902.55 674.099 902.11C673.586 901.67 673.183 901.12 672.889 900.46C672.669 899.8 672.559 899.14 672.559 898.48C672.559 897.527 673.329 896.353 674.869 894.96C676.483 893.493 678.536 891.807 681.029 889.9C683.596 887.993 686.309 885.757 689.169 883.19C691.883 880.697 694.376 878.24 696.649 875.82C698.923 873.327 701.159 870.723 703.359 868.01L704.349 872.08C699.143 871.2 694.706 869.917 691.039 868.23C687.373 866.47 684.403 864.417 682.129 862.07C679.929 859.723 678.316 857.193 677.289 854.48C676.336 851.767 675.859 849.053 675.859 846.34C675.859 843.7 676.556 841.06 677.949 838.42C679.343 835.707 681.469 833.25 684.329 831.05C687.263 828.85 690.929 827.09 695.329 825.77C699.803 824.377 705.083 823.68 711.169 823.68C714.469 823.68 717.403 824.01 719.969 824.67C722.536 825.33 724.553 826.467 726.019 828.08C727.559 829.693 728.329 831.967 728.329 834.9C728.329 835.78 728.219 837.54 727.999 840.18C727.853 842.747 727.633 845.79 727.339 849.31C727.119 852.83 726.899 856.533 726.679 860.42C726.533 864.233 726.459 867.9 726.459 871.42C726.459 875.16 726.643 878.9 727.009 882.64C727.376 886.38 727.743 889.643 728.109 892.43C728.476 895.217 728.659 897.05 728.659 897.93C728.659 898.737 728.513 899.543 728.219 900.35C727.999 901.157 727.596 901.817 727.009 902.33C726.423 902.843 725.689 903.1 724.809 903.1C723.123 903.1 721.729 902.367 720.629 900.9C719.529 899.433 718.759 897.563 718.319 895.29C718.246 894.85 718.063 893.493 717.769 891.22C717.476 888.873 717.219 886.05 716.999 882.75C716.779 879.377 716.669 875.967 716.669 872.52C716.669 868.707 716.743 864.71 716.889 860.53C717.036 856.277 717.219 852.17 717.439 848.21C717.733 844.25 717.989 840.803 718.209 837.87C718.503 834.863 718.723 832.737 718.869 831.49L720.079 836C718.906 835.34 717.403 834.753 715.569 834.24C713.809 833.653 711.206 833.36 707.759 833.36C705.486 833.36 703.066 833.617 700.499 834.13C698.006 834.57 695.659 835.34 693.459 836.44C691.259 837.467 689.463 838.823 688.069 840.51C686.676 842.197 685.979 844.177 685.979 846.45C685.979 851.07 688.033 855.03 692.139 858.33C696.319 861.63 702.149 863.903 709.629 865.15C711.023 865.37 711.939 865.81 712.379 866.47C712.893 867.13 713.149 867.973 713.149 869C713.149 869.733 712.563 870.943 711.389 872.63C710.289 874.243 708.859 876.077 707.099 878.13C705.413 880.11 703.616 882.09 701.709 884.07C699.876 885.977 698.153 887.663 696.539 889.13C693.973 891.403 691.369 893.603 688.729 895.73C686.163 897.857 683.779 899.58 681.579 900.9C679.379 902.147 677.583 902.77 676.189 902.77ZM744.699 854.26C743.526 854.26 742.573 853.93 741.839 853.27C741.106 852.61 740.739 851.693 740.739 850.52C740.739 849.053 741.143 847.44 741.949 845.68C742.756 843.847 743.709 841.793 744.809 839.52C745.983 837.247 747.046 834.643 747.999 831.71C749.026 828.703 749.759 825.33 750.199 821.59C750.493 818.29 751.079 815.98 751.959 814.66C752.913 813.34 754.196 812.68 755.809 812.68C757.569 812.68 758.999 813.267 760.099 814.44C761.273 815.613 761.859 817.007 761.859 818.62C761.859 820.673 761.566 823.02 760.979 825.66C760.466 828.3 759.696 831.05 758.669 833.91C757.643 836.77 756.469 839.557 755.149 842.27C753.903 844.91 752.546 847.33 751.079 849.53C749.906 851.143 748.806 852.353 747.779 853.16C746.826 853.893 745.799 854.26 744.699 854.26ZM772.749 855.47C771.576 855.47 770.623 855.177 769.889 854.59C769.229 854.003 768.899 853.16 768.899 852.06C768.899 850.74 769.193 849.42 769.779 848.1C770.439 846.707 771.209 845.167 772.089 843.48C772.969 841.72 773.813 839.593 774.619 837.1C775.426 834.607 776.013 831.6 776.379 828.08C776.746 825 777.369 823.02 778.249 822.14C779.129 821.187 780.156 820.71 781.329 820.71C783.016 820.71 784.373 821.223 785.399 822.25C786.499 823.277 787.049 824.89 787.049 827.09C787.049 830.463 786.389 834.277 785.069 838.53C783.823 842.71 781.806 846.89 779.019 851.07C777.993 852.683 776.966 853.82 775.939 854.48C774.913 855.14 773.849 855.47 772.749 855.47Z" fill="white"/>
</g>
<g filter="url(#filter4_i_4_19)">
<path d="M744.177 279.898C757.771 275.311 798.471 258.628 809.117 241.114C819.312 224.34 813.049 299.23 813.049 299.23C813.049 299.23 809.758 340.563 799.897 365.163C790.294 389.118 782.443 402.37 764.509 422.031C744.646 443.805 728.4 451.872 702.581 467.747C654.296 497.435 619.875 502.364 566.849 524.481C538.861 536.154 502.936 554.345 495.168 554.345C487.4 554.345 492.64 524.647 501.6 508.531C512.139 489.574 547.468 473.411 547.468 473.411C547.468 473.411 575.894 459.438 594.523 451.226C611.206 443.872 621.118 437.434 628.886 434.222C636.654 431.011 638.93 425.955 636.654 422.031C631.347 412.88 606.409 419.366 606.409 419.366L580.443 427.194L534.83 447.838C534.83 447.838 508.274 464.645 493.112 477.375C474.047 493.382 449.357 522.792 449.357 522.792L410.516 575.091C410.516 575.091 377.947 623.149 362.937 637.941C347.926 652.733 335.263 657.448 331.864 646.437C328.466 635.427 327.837 631.61 336.576 600.873C345.315 570.136 358.819 543.066 358.819 543.066C358.819 543.066 376.291 510.88 390.077 491.655C405.161 470.621 433.311 440.733 433.311 440.733L470.414 405.131C470.414 405.131 507.752 374.746 534.83 357.169C568.932 335.034 590.214 324.877 628.886 310.096C672.06 293.595 730.583 284.486 744.177 279.898Z" fill="#014AAB"/>
</g>
<defs>
<filter id="filter0_f_4_19" x="0" y="0" width="1144" height="1143" filterUnits="userSpaceOnUse" color-interpolation-filters="sRGB">
<feFlood flood-opacity="0" result="BackgroundImageFix"/>
<feBlend mode="normal" in="SourceGraphic" in2="BackgroundImageFix" result="shape"/>
<feGaussianBlur stdDeviation="100" result="effect1_foregroundBlur_4_19"/>
</filter>
<filter id="filter1_d_4_19" x="334.41" y="339.01" width="107.861" height="77.8899" filterUnits="userSpaceOnUse" color-interpolation-filters="sRGB">
<feFlood flood-opacity="0" result="BackgroundImageFix"/>
<feColorMatrix in="SourceAlpha" type="matrix" values="0 0 0 0 0 0 0 0 0 0 0 0 0 0 0 0 0 0 127 0" result="hardAlpha"/>
<feOffset dx="9" dy="10"/>
<feGaussianBlur stdDeviation="1.5"/>
<feComposite in2="hardAlpha" operator="out"/>
<feColorMatrix type="matrix" values="0 0 0 0 0 0 0 0 0 0 0 0 0 0 0 0 0 0 0.25 0"/>
<feBlend mode="normal" in2="BackgroundImageFix" result="effect1_dropShadow_4_19"/>
<feBlend mode="normal" in="SourceGraphic" in2="effect1_dropShadow_4_19" result="shape"/>
</filter>
<filter id="filter2_i_4_19" x="317.571" y="453.937" width="471.722" height="458.308" filterUnits="userSpaceOnUse" color-interpolation-filters="sRGB">
<feFlood flood-opacity="0" result="BackgroundImageFix"/>
<feBlend mode="normal" in="SourceGraphic" in2="BackgroundImageFix" result="shape"/>
<feColorMatrix in="SourceAlpha" type="matrix" values="0 0 0 0 0 0 0 0 0 0 0 0 0 0 0 0 0 0 127 0" result="hardAlpha"/>
<feOffset dx="-2" dy="10"/>
<feGaussianBlur stdDeviation="10"/>
<feComposite in2="hardAlpha" operator="arithmetic" k2="-1" k3="1"/>
<feColorMatrix type="matrix" values="0 0 0 0 0 0 0 0 0 0 0 0 0 0 0 0 0 0 0.25 0"/>
<feBlend mode="normal" in2="shape" result="effect1_innerShadow_4_19"/>
</filter>
<filter id="filter3_d_4_19" x="324.71" y="812.68" width="474.339" height="123.11" filterUnits="userSpaceOnUse" color-interpolation-filters="sRGB">
<feFlood flood-opacity="0" result="BackgroundImageFix"/>
<feColorMatrix in="SourceAlpha" type="matrix" values="0 0 0 0 0 0 0 0 0 0 0 0 0 0 0 0 0 0 127 0" result="hardAlpha"/>
<feOffset dx="9" dy="10"/>
<feGaussianBlur stdDeviation="1.5"/>
<feComposite in2="hardAlpha" operator="out"/>
<feColorMatrix type="matrix" values="0 0 0 0 0 0 0 0 0 0 0 0 0 0 0 0 0 0 0.25 0"/>
<feBlend mode="normal" in2="BackgroundImageFix" result="effect1_dropShadow_4_19"/>
<feBlend mode="normal" in="SourceGraphic" in2="effect1_dropShadow_4_19" result="shape"/>
</filter>
<filter id="filter4_i_4_19" x="327.536" y="238.665" width="487.417" height="423.823" filterUnits="userSpaceOnUse" color-interpolation-filters="sRGB">
<feFlood flood-opacity="0" result="BackgroundImageFix"/>
<feBlend mode="normal" in="SourceGraphic" in2="BackgroundImageFix" result="shape"/>
<feColorMatrix in="SourceAlpha" type="matrix" values="0 0 0 0 0 0 0 0 0 0 0 0 0 0 0 0 0 0 127 0" result="hardAlpha"/>
<feOffset dx="-2" dy="10"/>
<feGaussianBlur stdDeviation="10"/>
<feComposite in2="hardAlpha" operator="arithmetic" k2="-1" k3="1"/>
<feColorMatrix type="matrix" values="0 0 0 0 0 0 0 0 0 0 0 0 0 0 0 0 0 0 0.25 0"/>
<feBlend mode="normal" in2="shape" result="effect1_innerShadow_4_19"/>
</filter>
</defs>
</svg>
