<svg width="1044" height="1043" viewBox="0 0 1044 1043" fill="none" xmlns="http://www.w3.org/2000/svg">
<g filter="url(#filter0_f_4_19)">
<rect x="150" y="150" width="744" height="743" rx="336" fill="#FFD900" fill-opacity="0.3"/>
</g>
<g filter="url(#filter1_d_4_19)">
<path d="M293.77 353.9C292.51 353.9 291.46 353.27 290.62 352.01C289.78 350.69 289.36 349.22 289.36 347.6C289.36 346.7 289.45 344.99 289.63 342.47C289.81 339.89 289.96 336.77 290.08 333.11C290.26 329.45 290.35 325.55 290.35 321.41C290.35 318.05 290.32 314.84 290.26 311.78C290.2 308.66 290.11 305.72 289.99 302.96C289.93 300.14 289.81 297.47 289.63 294.95L298.09 294.41C298.27 297.77 298.39 301.82 298.45 306.56C298.51 311.3 298.51 316.19 298.45 321.23C298.45 325.73 298.39 329.93 298.27 333.83C298.21 337.67 298.12 340.97 298 343.73C297.88 346.43 297.76 348.41 297.64 349.67C297.52 350.87 297.13 351.89 296.47 352.73C295.81 353.51 294.91 353.9 293.77 353.9ZM289.45 297.56C288.43 297.56 287.56 297.35 286.84 296.93C286.12 296.51 285.52 295.97 285.04 295.31C284.62 294.59 284.41 293.87 284.41 293.15C284.41 292.07 284.86 291.29 285.76 290.81C286.72 290.33 288.37 290 290.71 289.82C291.61 289.76 293.11 289.73 295.21 289.73C297.37 289.67 299.83 289.64 302.59 289.64C305.41 289.58 308.35 289.52 311.41 289.46C314.47 289.4 317.41 289.37 320.23 289.37C322.21 289.37 323.71 289.55 324.73 289.91C325.81 290.27 326.56 290.72 326.98 291.26C327.46 291.74 327.7 292.34 327.7 293.06C327.7 294.32 327.16 295.28 326.08 295.94C325 296.6 323.5 296.93 321.58 296.93C319.24 296.93 316.75 296.9 314.11 296.84C311.53 296.78 309.16 296.75 307 296.75C304.48 296.75 302.05 296.84 299.71 297.02C297.37 297.14 295.3 297.26 293.5 297.38C291.76 297.5 290.41 297.56 289.45 297.56ZM351.741 353.9C347.661 353.9 344.031 353.21 340.851 351.83C337.731 350.39 335.061 348.44 332.841 345.98C330.681 343.46 329.001 340.58 327.801 337.34C326.661 334.1 326.091 330.62 326.091 326.9C326.091 322.88 326.631 319.25 327.711 316.01C328.791 312.71 330.171 309.8 331.851 307.28C333.531 304.7 335.271 302.54 337.071 300.8C338.931 299.06 340.611 297.74 342.111 296.84C343.611 295.88 344.721 295.4 345.441 295.4C346.041 295.4 346.581 295.49 347.061 295.67C347.541 295.85 348.051 296.33 348.591 297.11C349.491 298.43 349.611 299.6 348.951 300.62C348.351 301.64 347.421 302.57 346.161 303.41C344.361 304.61 342.531 306.26 340.671 308.36C338.871 310.46 337.341 313.04 336.081 316.1C334.881 319.16 334.281 322.76 334.281 326.9C334.281 330.32 334.911 333.5 336.171 336.44C337.491 339.38 339.441 341.75 342.021 343.55C344.601 345.29 347.841 346.16 351.741 346.16C355.641 346.16 359.121 345.32 362.181 343.64C365.241 341.96 367.641 339.62 369.381 336.62C371.181 333.56 372.081 330.02 372.081 326C372.081 322.58 371.661 319.16 370.821 315.74C370.041 312.32 368.841 309.17 367.221 306.29C365.601 303.41 363.621 301.13 361.281 299.45C359.001 297.71 356.331 296.84 353.271 296.84C351.891 296.84 350.931 297.35 350.391 298.37C349.851 299.33 349.581 300.56 349.581 302.06C349.581 303.32 349.251 304.31 348.591 305.03C347.991 305.69 347.241 306.02 346.341 306.02C345.561 306.02 344.811 305.81 344.091 305.39C343.431 304.97 342.861 304.34 342.381 303.5C341.961 302.6 341.751 301.55 341.751 300.35C341.751 298.31 342.141 296.45 342.921 294.77C343.761 293.09 344.991 291.71 346.611 290.63C348.231 289.55 350.151 289.01 352.371 289.01C356.811 289.01 360.741 290 364.161 291.98C367.641 293.9 370.581 296.57 372.981 299.99C375.381 303.41 377.181 307.37 378.381 311.87C379.641 316.31 380.271 321.02 380.271 326C380.271 329.9 379.581 333.53 378.201 336.89C376.881 340.25 374.931 343.22 372.351 345.8C369.831 348.32 366.831 350.3 363.351 351.74C359.871 353.18 356.001 353.9 351.741 353.9Z" fill="white"/>
</g>
<g filter="url(#filter2_i_4_19)">
<path d="M338.058 807.576C324.904 812.545 285.52 830.618 275.218 849.592C265.353 867.763 271.414 786.633 271.414 786.633C271.414 786.633 274.598 741.855 284.141 715.205C293.433 689.254 301.029 674.898 318.384 653.599C337.605 630.009 353.326 621.27 378.31 604.072C425.033 571.911 458.338 566.572 509.653 542.611C536.735 529.965 571.5 510.259 579.016 510.259C586.533 510.259 581.462 542.431 572.793 559.89C562.594 580.427 528.408 597.936 528.408 597.936C528.408 597.936 500.9 613.074 482.874 621.971C466.731 629.937 457.139 636.912 449.622 640.391C442.105 643.87 439.902 649.347 442.105 653.599C447.24 663.512 471.372 656.485 471.372 656.485L496.498 648.005L540.637 625.64C540.637 625.64 566.334 607.433 581.006 593.642C599.454 576.301 623.346 544.44 623.346 544.44L660.931 487.783C660.931 487.783 692.447 435.72 706.972 419.695C721.497 403.671 733.752 398.564 737.04 410.491C740.329 422.419 740.937 426.554 732.481 459.853C724.024 493.151 710.957 522.477 710.957 522.477C710.957 522.477 694.05 557.345 680.709 578.172C666.113 600.959 638.873 633.338 638.873 633.338L602.97 671.907C602.97 671.907 566.839 704.824 540.637 723.865C507.638 747.845 487.044 758.849 449.622 774.861C407.844 792.737 351.213 802.606 338.058 807.576Z" fill="#FFDE59"/>
</g>
<g filter="url(#filter3_d_4_19)">
<path d="M279.33 801.51C278.45 801.51 277.643 801.143 276.91 800.41C276.25 799.603 275.7 798.577 275.26 797.33C274.893 796.083 274.71 794.727 274.71 793.26C274.71 789.3 275.553 785.047 277.24 780.5C279 775.88 281.347 771.663 284.28 767.85C285.893 765.723 287.213 764.367 288.24 763.78C289.267 763.193 290.367 762.9 291.54 762.9C292.567 762.9 293.41 763.23 294.07 763.89C294.803 764.477 295.353 765.21 295.72 766.09C296.087 766.97 296.27 767.85 296.27 768.73C296.27 769.39 296.123 770.087 295.83 770.82C295.537 771.48 294.84 772.47 293.74 773.79C290.807 777.31 288.643 780.793 287.25 784.24C285.93 787.613 284.94 790.84 284.28 793.92C283.693 796.78 283.033 798.76 282.3 799.86C281.567 800.96 280.577 801.51 279.33 801.51ZM305.18 806.57C304.3 806.57 303.53 806.203 302.87 805.47C302.21 804.737 301.66 803.783 301.22 802.61C300.853 801.363 300.67 800.043 300.67 798.65C300.67 795.497 301.22 792.013 302.32 788.2C303.42 784.387 305.033 781.013 307.16 778.08C308.627 776.027 309.873 774.707 310.9 774.12C311.927 773.533 313.027 773.24 314.2 773.24C315.227 773.24 316.07 773.497 316.73 774.01C317.463 774.523 318.013 775.183 318.38 775.99C318.747 776.723 318.93 777.42 318.93 778.08C318.93 778.813 318.783 779.583 318.49 780.39C318.197 781.197 317.463 782.37 316.29 783.91C314.237 786.55 312.77 789.153 311.89 791.72C311.083 794.287 310.423 796.707 309.91 798.98C309.25 801.84 308.59 803.82 307.93 804.92C307.27 806.02 306.353 806.57 305.18 806.57ZM385.885 853.1C383.611 853.1 381.815 852.073 380.495 850.02C379.248 847.893 378.331 844.41 377.745 839.57C377.231 834.657 376.975 828.057 376.975 819.77C376.975 814.27 377.048 809.063 377.195 804.15C377.341 799.237 377.488 794.727 377.635 790.62C377.781 786.44 377.855 782.81 377.855 779.73C377.855 777.97 378.221 776.687 378.955 775.88C379.761 775 380.751 774.56 381.925 774.56C383.611 774.56 384.968 775.513 385.995 777.42C387.095 779.327 387.645 782.113 387.645 785.78C387.645 790.253 387.571 794.983 387.425 799.97C387.351 804.883 387.241 809.65 387.095 814.27C387.021 818.817 386.985 822.85 386.985 826.37C386.985 828.643 387.095 830.917 387.315 833.19C387.535 835.39 387.791 837.663 388.085 840.01C388.378 842.357 388.708 844.923 389.075 847.71C389.368 849.397 389.148 850.717 388.415 851.67C387.755 852.623 386.911 853.1 385.885 853.1ZM338.475 853.32C336.861 853.32 335.395 852.55 334.075 851.01C332.828 849.397 332.241 846.647 332.315 842.76C332.315 838.947 332.315 835.207 332.315 831.54C332.388 827.8 332.425 824.023 332.425 820.21C332.425 816.323 332.425 812.29 332.425 808.11C332.498 803.93 332.535 799.457 332.535 794.69C332.535 789.923 332.535 784.753 332.535 779.18C332.535 777.493 332.901 776.21 333.635 775.33C334.368 774.45 335.468 774.01 336.935 774.01C338.548 774.01 339.905 774.963 341.005 776.87C342.105 778.703 342.655 781.6 342.655 785.56C342.655 791.573 342.618 797.513 342.545 803.38C342.471 809.247 342.435 814.93 342.435 820.43C342.435 825.857 342.398 830.99 342.325 835.83C342.325 840.67 342.325 845.07 342.325 849.03C342.325 850.277 341.958 851.303 341.225 852.11C340.491 852.917 339.575 853.32 338.475 853.32ZM333.525 819.66C331.471 819.66 329.858 819.44 328.685 819C327.511 818.487 326.668 817.863 326.155 817.13C325.715 816.323 325.495 815.48 325.495 814.6C325.495 813.793 325.715 813.023 326.155 812.29C326.668 811.557 327.621 811.117 329.015 810.97C335.615 809.943 342.031 809.137 348.265 808.55C354.498 807.963 360.731 807.56 366.965 807.34C373.198 807.047 379.468 806.9 385.775 806.9C387.901 806.9 389.588 807.193 390.835 807.78C392.155 808.293 393.108 808.953 393.695 809.76C394.355 810.567 394.685 811.373 394.685 812.18C394.685 813.353 394.245 814.307 393.365 815.04C392.558 815.7 391.421 816.03 389.955 816.03C381.081 816.03 373.491 816.213 367.185 816.58C360.878 816.947 355.561 817.387 351.235 817.9C346.981 818.34 343.461 818.743 340.675 819.11C337.888 819.477 335.505 819.66 333.525 819.66ZM466.927 852.99C465.314 852.99 463.957 852.33 462.857 851.01C461.831 849.617 460.694 847.307 459.447 844.08C458.347 841.367 457.284 838.067 456.257 834.18C455.231 830.293 454.314 826.187 453.507 821.86C452.701 817.533 452.077 813.427 451.637 809.54C451.124 804.773 450.647 800.703 450.207 797.33C449.767 793.957 449.291 791.28 448.777 789.3C448.264 787.247 447.604 785.743 446.797 784.79C446.064 783.837 445.037 783.36 443.717 783.36C441.737 783.36 439.501 784.937 437.007 788.09C434.587 791.17 432.167 795.57 429.747 801.29C427.327 807.01 425.054 813.867 422.927 821.86C420.801 829.853 419.077 838.763 417.757 848.59C417.537 849.983 417.134 851.047 416.547 851.78C416.034 852.513 415.227 852.88 414.127 852.88C412.441 852.88 411.121 852.33 410.167 851.23C409.287 850.057 408.847 848.003 408.847 845.07C408.847 840.817 409.251 836.6 410.057 832.42C410.937 828.167 411.964 823.913 413.137 819.66C414.311 815.407 415.374 811.117 416.327 806.79C417.281 802.39 417.867 797.99 418.087 793.59C418.161 792.343 418.454 791.39 418.967 790.73C419.481 789.997 420.287 789.63 421.387 789.63C422.414 789.63 423.404 789.923 424.357 790.51C425.311 791.097 426.191 792.013 426.997 793.26L422.927 794.36C426.301 787.54 429.637 782.443 432.937 779.07C436.311 775.623 439.977 773.9 443.937 773.9C448.191 773.9 451.381 775.147 453.507 777.64C455.634 780.133 457.211 783.983 458.237 789.19C459.337 794.323 460.291 800.997 461.097 809.21C461.831 815.297 462.711 820.54 463.737 824.94C464.764 829.34 465.791 833.08 466.817 836.16C467.844 839.24 468.724 841.807 469.457 843.86C470.191 845.913 470.557 847.71 470.557 849.25C470.557 851.743 469.347 852.99 466.927 852.99ZM408.077 831.43C406.464 831.43 405.254 831.1 404.447 830.44C403.714 829.707 403.347 828.753 403.347 827.58C403.347 826.627 403.641 825.857 404.227 825.27C404.814 824.61 405.804 824.023 407.197 823.51C415.117 820.503 424.211 818.303 434.477 816.91C444.744 815.517 455.817 814.82 467.697 814.82C470.264 814.82 471.987 815.187 472.867 815.92C473.821 816.653 474.297 817.717 474.297 819.11C474.297 820.577 473.601 821.823 472.207 822.85C470.814 823.803 468.761 824.28 466.047 824.28C457.614 824.28 450.537 824.537 444.817 825.05C439.097 825.49 434.294 826.077 430.407 826.81C426.594 827.47 423.404 828.167 420.837 828.9C418.271 829.633 415.997 830.257 414.017 830.77C412.111 831.21 410.131 831.43 408.077 831.43ZM536.351 846.61C535.618 841.917 534.738 837.077 533.711 832.09C532.758 827.03 531.658 822.08 530.411 817.24C529.164 812.4 527.881 807.89 526.561 803.71C525.314 799.457 524.068 795.717 522.821 792.49C521.574 789.19 520.438 786.623 519.411 784.79L521.281 784.24C519.448 787.393 517.724 790.877 516.111 794.69C514.498 798.43 512.994 802.17 511.601 805.91C510.208 809.65 508.924 813.133 507.751 816.36C506.944 818.633 506.064 821.163 505.111 823.95C504.231 826.737 503.314 829.633 502.361 832.64C501.408 835.647 500.491 838.507 499.611 841.22C498.804 843.933 498.108 846.28 497.521 848.26L487.841 846.5C489.161 842.76 490.444 838.837 491.691 834.73C493.011 830.623 494.294 826.59 495.541 822.63C496.861 818.67 498.108 815.077 499.281 811.85C501.554 805.69 503.718 800.19 505.771 795.35C507.824 790.437 509.731 786.33 511.491 783.03C512.444 781.197 513.324 779.62 514.131 778.3C514.938 776.98 515.854 775.953 516.881 775.22C517.908 774.487 519.154 774.12 520.621 774.12C521.794 774.12 522.931 774.487 524.031 775.22C525.131 775.88 526.158 776.87 527.111 778.19C528.064 779.437 528.908 780.903 529.641 782.59C530.448 784.423 531.438 787.027 532.611 790.4C533.784 793.7 534.994 797.513 536.241 801.84C537.561 806.093 538.844 810.677 540.091 815.59C541.411 820.503 542.621 825.49 543.721 830.55C544.821 835.537 545.738 840.377 546.471 845.07L536.351 846.61ZM552.521 872.79C550.908 872.79 549.624 872.13 548.671 870.81C547.718 869.49 547.241 867.803 547.241 865.75C547.241 864.65 547.241 863.22 547.241 861.46C547.314 859.773 547.388 858.013 547.461 856.18C547.534 854.42 547.571 852.843 547.571 851.45L550.651 852.99C549.258 852.843 547.388 852.697 545.041 852.55C542.768 852.477 540.274 852.367 537.561 852.22C534.921 852.147 532.244 852.073 529.531 852C526.891 852 524.471 852 522.271 852C514.131 852 506.834 852.073 500.381 852.22C494.001 852.44 488.941 852.807 485.201 853.32L486.741 848.26C486.814 850.46 486.998 852.587 487.291 854.64C487.584 856.767 487.841 858.71 488.061 860.47C488.354 862.303 488.501 863.917 488.501 865.31C488.501 866.63 488.244 867.73 487.731 868.61C487.291 869.563 486.631 870.26 485.751 870.7C484.944 871.213 484.101 871.47 483.221 871.47C482.488 871.47 481.864 871.287 481.351 870.92C480.911 870.627 480.508 870.113 480.141 869.38C479.848 868.72 479.554 867.877 479.261 866.85C479.114 866.263 478.858 865.163 478.491 863.55C478.124 861.937 477.831 860.103 477.611 858.05C477.391 856.07 477.281 854.09 477.281 852.11C477.281 850.35 477.574 848.883 478.161 847.71C478.748 846.537 479.701 845.62 481.021 844.96C482.341 844.3 484.101 843.933 486.301 843.86C487.181 843.86 488.501 843.823 490.261 843.75C492.094 843.603 494.514 843.493 497.521 843.42C500.601 843.273 504.488 843.163 509.181 843.09C513.948 843.017 519.741 842.98 526.561 842.98C530.081 842.98 533.308 843.017 536.241 843.09C539.174 843.09 541.704 843.127 543.831 843.2C546.031 843.2 547.681 843.273 548.781 843.42C551.201 843.713 553.071 844.227 554.391 844.96C555.711 845.693 556.628 846.72 557.141 848.04C557.728 849.36 558.021 851.047 558.021 853.1C558.021 855.08 557.948 857.023 557.801 858.93C557.728 860.91 557.618 862.633 557.471 864.1C557.324 865.567 557.214 866.667 557.141 867.4C556.921 869.453 556.334 870.847 555.381 871.58C554.501 872.387 553.548 872.79 552.521 872.79ZM567.806 786.44C566.119 786.44 564.799 786.037 563.846 785.23C562.966 784.423 562.526 783.36 562.526 782.04C562.526 781.013 562.929 780.06 563.736 779.18C564.543 778.227 565.899 777.603 567.806 777.31C571.326 776.723 575.433 776.21 580.126 775.77C584.819 775.33 589.696 775 594.756 774.78C599.889 774.487 604.839 774.34 609.606 774.34C612.026 774.34 613.713 774.597 614.666 775.11C615.619 775.623 616.096 776.577 616.096 777.97C616.096 779.877 615.069 781.38 613.016 782.48C610.963 783.58 608.139 784.13 604.546 784.13C599.779 784.13 595.673 784.203 592.226 784.35C588.853 784.497 585.993 784.68 583.646 784.9C581.299 785.12 579.246 785.377 577.486 785.67C575.726 785.89 574.076 786.073 572.536 786.22C571.069 786.367 569.493 786.44 567.806 786.44ZM590.136 845.84C588.303 845.84 586.799 845.07 585.626 843.53C584.453 841.99 583.866 839.937 583.866 837.37C583.866 830.99 584.013 824.757 584.306 818.67C584.673 812.583 585.003 806.753 585.296 801.18C585.589 795.607 585.736 790.547 585.736 786C585.736 784.24 585.993 782.92 586.506 782.04C587.093 781.087 588.046 780.61 589.366 780.61C591.053 780.61 592.483 781.417 593.656 783.03C594.903 784.57 595.526 786.477 595.526 788.75C595.526 792.05 595.379 796.34 595.086 801.62C594.793 806.9 594.463 812.95 594.096 819.77C593.803 826.517 593.656 833.85 593.656 841.77C593.656 844.483 592.483 845.84 590.136 845.84ZM569.676 853.21C567.183 853.21 565.349 852.77 564.176 851.89C563.076 850.937 562.526 849.727 562.526 848.26C562.526 847.233 562.819 846.353 563.406 845.62C564.066 844.887 565.093 844.447 566.486 844.3C569.199 844.007 571.876 843.787 574.516 843.64C577.156 843.42 579.833 843.237 582.546 843.09C585.259 842.943 588.046 842.833 590.906 842.76C593.766 842.687 596.699 842.65 599.706 842.65C602.786 842.577 605.976 842.54 609.276 842.54C611.109 842.54 612.503 842.723 613.456 843.09C614.409 843.457 615.069 843.933 615.436 844.52C615.876 845.033 616.096 845.693 616.096 846.5C616.096 847.967 615.363 849.25 613.896 850.35C612.503 851.45 610.156 852 606.856 852C601.209 852 595.929 852.073 591.016 852.22C586.176 852.44 581.923 852.66 578.256 852.88C574.663 853.1 571.803 853.21 569.676 853.21ZM626.189 852.77C625.383 852.77 624.686 852.55 624.099 852.11C623.586 851.67 623.183 851.12 622.889 850.46C622.669 849.8 622.559 849.14 622.559 848.48C622.559 847.527 623.329 846.353 624.869 844.96C626.483 843.493 628.536 841.807 631.029 839.9C633.596 837.993 636.309 835.757 639.169 833.19C641.883 830.697 644.376 828.24 646.649 825.82C648.923 823.327 651.159 820.723 653.359 818.01L654.349 822.08C649.143 821.2 644.706 819.917 641.039 818.23C637.373 816.47 634.403 814.417 632.129 812.07C629.929 809.723 628.316 807.193 627.289 804.48C626.336 801.767 625.859 799.053 625.859 796.34C625.859 793.7 626.556 791.06 627.949 788.42C629.343 785.707 631.469 783.25 634.329 781.05C637.263 778.85 640.929 777.09 645.329 775.77C649.803 774.377 655.083 773.68 661.169 773.68C664.469 773.68 667.403 774.01 669.969 774.67C672.536 775.33 674.553 776.467 676.019 778.08C677.559 779.693 678.329 781.967 678.329 784.9C678.329 785.78 678.219 787.54 677.999 790.18C677.853 792.747 677.633 795.79 677.339 799.31C677.119 802.83 676.899 806.533 676.679 810.42C676.533 814.233 676.459 817.9 676.459 821.42C676.459 825.16 676.643 828.9 677.009 832.64C677.376 836.38 677.743 839.643 678.109 842.43C678.476 845.217 678.659 847.05 678.659 847.93C678.659 848.737 678.513 849.543 678.219 850.35C677.999 851.157 677.596 851.817 677.009 852.33C676.423 852.843 675.689 853.1 674.809 853.1C673.123 853.1 671.729 852.367 670.629 850.9C669.529 849.433 668.759 847.563 668.319 845.29C668.246 844.85 668.063 843.493 667.769 841.22C667.476 838.873 667.219 836.05 666.999 832.75C666.779 829.377 666.669 825.967 666.669 822.52C666.669 818.707 666.743 814.71 666.889 810.53C667.036 806.277 667.219 802.17 667.439 798.21C667.733 794.25 667.989 790.803 668.209 787.87C668.503 784.863 668.723 782.737 668.869 781.49L670.079 786C668.906 785.34 667.403 784.753 665.569 784.24C663.809 783.653 661.206 783.36 657.759 783.36C655.486 783.36 653.066 783.617 650.499 784.13C648.006 784.57 645.659 785.34 643.459 786.44C641.259 787.467 639.463 788.823 638.069 790.51C636.676 792.197 635.979 794.177 635.979 796.45C635.979 801.07 638.033 805.03 642.139 808.33C646.319 811.63 652.149 813.903 659.629 815.15C661.023 815.37 661.939 815.81 662.379 816.47C662.893 817.13 663.149 817.973 663.149 819C663.149 819.733 662.563 820.943 661.389 822.63C660.289 824.243 658.859 826.077 657.099 828.13C655.413 830.11 653.616 832.09 651.709 834.07C649.876 835.977 648.153 837.663 646.539 839.13C643.973 841.403 641.369 843.603 638.729 845.73C636.163 847.857 633.779 849.58 631.579 850.9C629.379 852.147 627.583 852.77 626.189 852.77ZM694.699 804.26C693.526 804.26 692.573 803.93 691.839 803.27C691.106 802.61 690.739 801.693 690.739 800.52C690.739 799.053 691.143 797.44 691.949 795.68C692.756 793.847 693.709 791.793 694.809 789.52C695.983 787.247 697.046 784.643 697.999 781.71C699.026 778.703 699.759 775.33 700.199 771.59C700.493 768.29 701.079 765.98 701.959 764.66C702.913 763.34 704.196 762.68 705.809 762.68C707.569 762.68 708.999 763.267 710.099 764.44C711.273 765.613 711.859 767.007 711.859 768.62C711.859 770.673 711.566 773.02 710.979 775.66C710.466 778.3 709.696 781.05 708.669 783.91C707.643 786.77 706.469 789.557 705.149 792.27C703.903 794.91 702.546 797.33 701.079 799.53C699.906 801.143 698.806 802.353 697.779 803.16C696.826 803.893 695.799 804.26 694.699 804.26ZM722.749 805.47C721.576 805.47 720.623 805.177 719.889 804.59C719.229 804.003 718.899 803.16 718.899 802.06C718.899 800.74 719.193 799.42 719.779 798.1C720.439 796.707 721.209 795.167 722.089 793.48C722.969 791.72 723.813 789.593 724.619 787.1C725.426 784.607 726.013 781.6 726.379 778.08C726.746 775 727.369 773.02 728.249 772.14C729.129 771.187 730.156 770.71 731.329 770.71C733.016 770.71 734.373 771.223 735.399 772.25C736.499 773.277 737.049 774.89 737.049 777.09C737.049 780.463 736.389 784.277 735.069 788.53C733.823 792.71 731.806 796.89 729.019 801.07C727.993 802.683 726.966 803.82 725.939 804.48C724.913 805.14 723.849 805.47 722.749 805.47Z" fill="white"/>
</g>
<g filter="url(#filter4_i_4_19)">
<path d="M694.177 229.898C707.771 225.311 748.471 208.628 759.117 191.114C769.312 174.34 763.049 249.23 763.049 249.23C763.049 249.23 759.758 290.563 749.897 315.163C740.294 339.118 732.443 352.37 714.509 372.031C694.646 393.805 678.4 401.872 652.581 417.747C604.296 447.435 569.875 452.364 516.849 474.481C488.861 486.154 452.936 504.345 445.168 504.345C437.4 504.345 442.64 474.647 451.6 458.531C462.139 439.574 497.468 423.411 497.468 423.411C497.468 423.411 525.894 409.438 544.523 401.226C561.206 393.872 571.118 387.434 578.886 384.222C586.654 381.011 588.93 375.955 586.654 372.031C581.347 362.88 556.409 369.366 556.409 369.366L530.443 377.194L484.83 397.838C484.83 397.838 458.274 414.645 443.112 427.375C424.047 443.382 399.357 472.792 399.357 472.792L360.516 525.091C360.516 525.091 327.947 573.149 312.937 587.941C297.926 602.733 285.263 607.448 281.864 596.437C278.466 585.427 277.837 581.61 286.576 550.873C295.315 520.136 308.819 493.066 308.819 493.066C308.819 493.066 326.291 460.88 340.077 441.655C355.161 420.621 383.311 390.733 383.311 390.733L420.414 355.131C420.414 355.131 457.752 324.746 484.83 307.169C518.932 285.034 540.214 274.877 578.886 260.096C622.06 243.595 680.583 234.486 694.177 229.898Z" fill="#014AAB"/>
</g>
<defs>
<filter id="filter0_f_4_19" x="0" y="0" width="1044" height="1043" filterUnits="userSpaceOnUse" color-interpolation-filters="sRGB">
<feFlood flood-opacity="0" result="BackgroundImageFix"/>
<feBlend mode="normal" in="SourceGraphic" in2="BackgroundImageFix" result="shape"/>
<feGaussianBlur stdDeviation="75" result="effect1_foregroundBlur_4_19"/>
</filter>
<filter id="filter1_d_4_19" x="284.41" y="289.01" width="107.861" height="77.8899" filterUnits="userSpaceOnUse" color-interpolation-filters="sRGB">
<feFlood flood-opacity="0" result="BackgroundImageFix"/>
<feColorMatrix in="SourceAlpha" type="matrix" values="0 0 0 0 0 0 0 0 0 0 0 0 0 0 0 0 0 0 127 0" result="hardAlpha"/>
<feOffset dx="9" dy="10"/>
<feGaussianBlur stdDeviation="1.5"/>
<feComposite in2="hardAlpha" operator="out"/>
<feColorMatrix type="matrix" values="0 0 0 0 0 0 0 0 0 0 0 0 0 0 0 0 0 0 0.25 0"/>
<feBlend mode="normal" in2="BackgroundImageFix" result="effect1_dropShadow_4_19"/>
<feBlend mode="normal" in="SourceGraphic" in2="effect1_dropShadow_4_19" result="shape"/>
</filter>
<filter id="filter2_i_4_19" x="267.571" y="403.937" width="471.722" height="458.308" filterUnits="userSpaceOnUse" color-interpolation-filters="sRGB">
<feFlood flood-opacity="0" result="BackgroundImageFix"/>
<feBlend mode="normal" in="SourceGraphic" in2="BackgroundImageFix" result="shape"/>
<feColorMatrix in="SourceAlpha" type="matrix" values="0 0 0 0 0 0 0 0 0 0 0 0 0 0 0 0 0 0 127 0" result="hardAlpha"/>
<feOffset dx="-2" dy="10"/>
<feGaussianBlur stdDeviation="10"/>
<feComposite in2="hardAlpha" operator="arithmetic" k2="-1" k3="1"/>
<feColorMatrix type="matrix" values="0 0 0 0 0 0 0 0 0 0 0 0 0 0 0 0 0 0 0.25 0"/>
<feBlend mode="normal" in2="shape" result="effect1_innerShadow_4_19"/>
</filter>
<filter id="filter3_d_4_19" x="274.71" y="762.68" width="474.339" height="123.11" filterUnits="userSpaceOnUse" color-interpolation-filters="sRGB">
<feFlood flood-opacity="0" result="BackgroundImageFix"/>
<feColorMatrix in="SourceAlpha" type="matrix" values="0 0 0 0 0 0 0 0 0 0 0 0 0 0 0 0 0 0 127 0" result="hardAlpha"/>
<feOffset dx="9" dy="10"/>
<feGaussianBlur stdDeviation="1.5"/>
<feComposite in2="hardAlpha" operator="out"/>
<feColorMatrix type="matrix" values="0 0 0 0 0 0 0 0 0 0 0 0 0 0 0 0 0 0 0.25 0"/>
<feBlend mode="normal" in2="BackgroundImageFix" result="effect1_dropShadow_4_19"/>
<feBlend mode="normal" in="SourceGraphic" in2="effect1_dropShadow_4_19" result="shape"/>
</filter>
<filter id="filter4_i_4_19" x="277.536" y="188.665" width="487.417" height="423.823" filterUnits="userSpaceOnUse" color-interpolation-filters="sRGB">
<feFlood flood-opacity="0" result="BackgroundImageFix"/>
<feBlend mode="normal" in="SourceGraphic" in2="BackgroundImageFix" result="shape"/>
<feColorMatrix in="SourceAlpha" type="matrix" values="0 0 0 0 0 0 0 0 0 0 0 0 0 0 0 0 0 0 127 0" result="hardAlpha"/>
<feOffset dx="-2" dy="10"/>
<feGaussianBlur stdDeviation="10"/>
<feComposite in2="hardAlpha" operator="arithmetic" k2="-1" k3="1"/>
<feColorMatrix type="matrix" values="0 0 0 0 0 0 0 0 0 0 0 0 0 0 0 0 0 0 0.25 0"/>
<feBlend mode="normal" in2="shape" result="effect1_innerShadow_4_19"/>
</filter>
</defs>
</svg>
