<svg width="742" height="748" viewBox="0 0 742 748" fill="none" xmlns="http://www.w3.org/2000/svg">
<g filter="url(#filter0_d_4_19)">
<path d="M142.722 131.528C141.462 131.528 140.412 130.898 139.572 129.638C138.732 128.318 138.312 126.848 138.312 125.228C138.312 124.328 138.402 122.618 138.582 120.098C138.762 117.518 138.912 114.398 139.032 110.738C139.212 107.078 139.302 103.178 139.302 99.0382C139.302 95.6782 139.272 92.4682 139.212 89.4082C139.152 86.2882 139.062 83.3482 138.942 80.5882C138.882 77.7682 138.762 75.0982 138.582 72.5782L147.042 72.0382C147.222 75.3982 147.342 79.4482 147.402 84.1882C147.462 88.9282 147.462 93.8182 147.402 98.8582C147.402 103.358 147.342 107.558 147.222 111.458C147.162 115.298 147.072 118.598 146.952 121.358C146.832 124.058 146.712 126.038 146.592 127.298C146.472 128.498 146.082 129.518 145.422 130.358C144.762 131.138 143.862 131.528 142.722 131.528ZM138.402 75.1882C137.382 75.1882 136.512 74.9782 135.792 74.5582C135.072 74.1382 134.472 73.5982 133.992 72.9382C133.572 72.2182 133.362 71.4982 133.362 70.7782C133.362 69.6982 133.812 68.9182 134.712 68.4382C135.672 67.9582 137.322 67.6282 139.662 67.4482C140.562 67.3882 142.062 67.3582 144.162 67.3582C146.322 67.2982 148.782 67.2682 151.542 67.2682C154.362 67.2082 157.302 67.1482 160.362 67.0882C163.422 67.0282 166.362 66.9982 169.182 66.9982C171.162 66.9982 172.662 67.1782 173.682 67.5382C174.762 67.8982 175.512 68.3482 175.932 68.8882C176.412 69.3682 176.652 69.9682 176.652 70.6882C176.652 71.9482 176.112 72.9082 175.032 73.5682C173.952 74.2282 172.452 74.5582 170.532 74.5582C168.192 74.5582 165.702 74.5282 163.062 74.4682C160.482 74.4082 158.112 74.3782 155.952 74.3782C153.432 74.3782 151.002 74.4682 148.662 74.6482C146.322 74.7682 144.252 74.8882 142.452 75.0082C140.712 75.1282 139.362 75.1882 138.402 75.1882ZM200.693 131.528C196.613 131.528 192.983 130.838 189.803 129.458C186.683 128.018 184.013 126.068 181.793 123.608C179.633 121.088 177.953 118.208 176.753 114.968C175.613 111.728 175.043 108.248 175.043 104.528C175.043 100.508 175.583 96.8782 176.663 93.6382C177.743 90.3382 179.123 87.4282 180.803 84.9082C182.483 82.3282 184.223 80.1682 186.023 78.4282C187.883 76.6882 189.563 75.3682 191.063 74.4682C192.563 73.5082 193.673 73.0282 194.393 73.0282C194.993 73.0282 195.533 73.1182 196.013 73.2982C196.493 73.4782 197.003 73.9582 197.543 74.7382C198.443 76.0582 198.563 77.2282 197.903 78.2482C197.303 79.2682 196.373 80.1982 195.113 81.0382C193.313 82.2382 191.483 83.8882 189.623 85.9882C187.823 88.0882 186.293 90.6682 185.033 93.7282C183.833 96.7882 183.233 100.388 183.233 104.528C183.233 107.948 183.863 111.128 185.123 114.068C186.443 117.008 188.393 119.378 190.973 121.178C193.553 122.918 196.793 123.788 200.693 123.788C204.593 123.788 208.073 122.948 211.133 121.268C214.193 119.588 216.593 117.248 218.333 114.248C220.133 111.188 221.033 107.648 221.033 103.628C221.033 100.208 220.613 96.7882 219.773 93.3682C218.993 89.9482 217.793 86.7982 216.173 83.9182C214.553 81.0382 212.573 78.7582 210.233 77.0782C207.953 75.3382 205.283 74.4682 202.223 74.4682C200.843 74.4682 199.883 74.9782 199.343 75.9982C198.803 76.9582 198.533 78.1882 198.533 79.6882C198.533 80.9482 198.203 81.9382 197.543 82.6582C196.943 83.3182 196.193 83.6482 195.293 83.6482C194.513 83.6482 193.763 83.4382 193.043 83.0182C192.383 82.5982 191.813 81.9682 191.333 81.1282C190.913 80.2282 190.703 79.1782 190.703 77.9782C190.703 75.9382 191.093 74.0782 191.873 72.3982C192.713 70.7182 193.943 69.3382 195.563 68.2582C197.183 67.1782 199.103 66.6382 201.323 66.6382C205.763 66.6382 209.693 67.6282 213.113 69.6082C216.593 71.5282 219.533 74.1982 221.933 77.6182C224.333 81.0382 226.133 84.9982 227.333 89.4982C228.593 93.9382 229.223 98.6482 229.223 103.628C229.223 107.528 228.533 111.158 227.153 114.518C225.833 117.878 223.883 120.848 221.303 123.428C218.783 125.948 215.783 127.928 212.303 129.368C208.823 130.808 204.953 131.528 200.693 131.528Z" fill="white"/>
</g>
<g filter="url(#filter1_i_4_19)">
<path d="M186.542 653.15C173.493 658.087 134.427 676.038 124.209 694.884C114.422 712.933 120.434 632.349 120.434 632.349C120.434 632.349 123.593 587.872 133.059 561.402C142.276 535.625 149.811 521.365 167.026 500.21C186.092 476.779 201.686 468.099 226.469 451.017C272.815 419.072 305.852 413.769 356.752 389.969C383.616 377.408 418.1 357.834 425.556 357.834C433.012 357.834 427.983 389.791 419.383 407.132C409.267 427.53 375.356 444.922 375.356 444.922C375.356 444.922 348.07 459.958 330.189 468.794C314.176 476.708 304.662 483.635 297.205 487.091C289.749 490.546 287.564 495.987 289.749 500.21C294.843 510.057 318.78 503.077 318.78 503.077L343.704 494.653L387.487 472.439C387.487 472.439 412.976 454.355 427.53 440.657C445.829 423.432 469.529 391.786 469.529 391.786L506.811 335.51C506.811 335.51 538.073 283.798 552.481 267.881C566.888 251.964 579.044 246.891 582.306 258.739C585.568 270.586 586.172 274.693 577.783 307.768C569.395 340.842 556.433 369.971 556.433 369.971C556.433 369.971 539.662 404.604 526.429 425.29C511.951 447.924 484.931 480.085 484.931 480.085L449.317 518.395C449.317 518.395 413.477 551.09 387.487 570.003C354.753 593.822 334.325 604.752 297.205 620.656C255.764 638.412 199.59 648.214 186.542 653.15Z" fill="#FFDE59"/>
</g>
<g filter="url(#filter2_d_4_19)">
<path d="M271.33 663.51C270.45 663.51 269.643 663.143 268.91 662.41C268.25 661.603 267.7 660.577 267.26 659.33C266.893 658.083 266.71 656.727 266.71 655.26C266.71 651.3 267.553 647.047 269.24 642.5C271 637.88 273.347 633.663 276.28 629.85C277.893 627.723 279.213 626.367 280.24 625.78C281.267 625.193 282.367 624.9 283.54 624.9C284.567 624.9 285.41 625.23 286.07 625.89C286.803 626.477 287.353 627.21 287.72 628.09C288.087 628.97 288.27 629.85 288.27 630.73C288.27 631.39 288.123 632.087 287.83 632.82C287.537 633.48 286.84 634.47 285.74 635.79C282.807 639.31 280.643 642.793 279.25 646.24C277.93 649.613 276.94 652.84 276.28 655.92C275.693 658.78 275.033 660.76 274.3 661.86C273.567 662.96 272.577 663.51 271.33 663.51ZM297.18 668.57C296.3 668.57 295.53 668.203 294.87 667.47C294.21 666.737 293.66 665.783 293.22 664.61C292.853 663.363 292.67 662.043 292.67 660.65C292.67 657.497 293.22 654.013 294.32 650.2C295.42 646.387 297.033 643.013 299.16 640.08C300.627 638.027 301.873 636.707 302.9 636.12C303.927 635.533 305.027 635.24 306.2 635.24C307.227 635.24 308.07 635.497 308.73 636.01C309.463 636.523 310.013 637.183 310.38 637.99C310.747 638.723 310.93 639.42 310.93 640.08C310.93 640.813 310.783 641.583 310.49 642.39C310.197 643.197 309.463 644.37 308.29 645.91C306.237 648.55 304.77 651.153 303.89 653.72C303.083 656.287 302.423 658.707 301.91 660.98C301.25 663.84 300.59 665.82 299.93 666.92C299.27 668.02 298.353 668.57 297.18 668.57ZM377.885 715.1C375.611 715.1 373.815 714.073 372.495 712.02C371.248 709.893 370.331 706.41 369.745 701.57C369.231 696.657 368.975 690.057 368.975 681.77C368.975 676.27 369.048 671.063 369.195 666.15C369.341 661.237 369.488 656.727 369.635 652.62C369.781 648.44 369.855 644.81 369.855 641.73C369.855 639.97 370.221 638.687 370.955 637.88C371.761 637 372.751 636.56 373.925 636.56C375.611 636.56 376.968 637.513 377.995 639.42C379.095 641.327 379.645 644.113 379.645 647.78C379.645 652.253 379.571 656.983 379.425 661.97C379.351 666.883 379.241 671.65 379.095 676.27C379.021 680.817 378.985 684.85 378.985 688.37C378.985 690.643 379.095 692.917 379.315 695.19C379.535 697.39 379.791 699.663 380.085 702.01C380.378 704.357 380.708 706.923 381.075 709.71C381.368 711.397 381.148 712.717 380.415 713.67C379.755 714.623 378.911 715.1 377.885 715.1ZM330.475 715.32C328.861 715.32 327.395 714.55 326.075 713.01C324.828 711.397 324.241 708.647 324.315 704.76C324.315 700.947 324.315 697.207 324.315 693.54C324.388 689.8 324.425 686.023 324.425 682.21C324.425 678.323 324.425 674.29 324.425 670.11C324.498 665.93 324.535 661.457 324.535 656.69C324.535 651.923 324.535 646.753 324.535 641.18C324.535 639.493 324.901 638.21 325.635 637.33C326.368 636.45 327.468 636.01 328.935 636.01C330.548 636.01 331.905 636.963 333.005 638.87C334.105 640.703 334.655 643.6 334.655 647.56C334.655 653.573 334.618 659.513 334.545 665.38C334.471 671.247 334.435 676.93 334.435 682.43C334.435 687.857 334.398 692.99 334.325 697.83C334.325 702.67 334.325 707.07 334.325 711.03C334.325 712.277 333.958 713.303 333.225 714.11C332.491 714.917 331.575 715.32 330.475 715.32ZM325.525 681.66C323.471 681.66 321.858 681.44 320.685 681C319.511 680.487 318.668 679.863 318.155 679.13C317.715 678.323 317.495 677.48 317.495 676.6C317.495 675.793 317.715 675.023 318.155 674.29C318.668 673.557 319.621 673.117 321.015 672.97C327.615 671.943 334.031 671.137 340.265 670.55C346.498 669.963 352.731 669.56 358.965 669.34C365.198 669.047 371.468 668.9 377.775 668.9C379.901 668.9 381.588 669.193 382.835 669.78C384.155 670.293 385.108 670.953 385.695 671.76C386.355 672.567 386.685 673.373 386.685 674.18C386.685 675.353 386.245 676.307 385.365 677.04C384.558 677.7 383.421 678.03 381.955 678.03C373.081 678.03 365.491 678.213 359.185 678.58C352.878 678.947 347.561 679.387 343.235 679.9C338.981 680.34 335.461 680.743 332.675 681.11C329.888 681.477 327.505 681.66 325.525 681.66ZM458.927 714.99C457.314 714.99 455.957 714.33 454.857 713.01C453.831 711.617 452.694 709.307 451.447 706.08C450.347 703.367 449.284 700.067 448.257 696.18C447.231 692.293 446.314 688.187 445.507 683.86C444.701 679.533 444.077 675.427 443.637 671.54C443.124 666.773 442.647 662.703 442.207 659.33C441.767 655.957 441.291 653.28 440.777 651.3C440.264 649.247 439.604 647.743 438.797 646.79C438.064 645.837 437.037 645.36 435.717 645.36C433.737 645.36 431.501 646.937 429.007 650.09C426.587 653.17 424.167 657.57 421.747 663.29C419.327 669.01 417.054 675.867 414.927 683.86C412.801 691.853 411.077 700.763 409.757 710.59C409.537 711.983 409.134 713.047 408.547 713.78C408.034 714.513 407.227 714.88 406.127 714.88C404.441 714.88 403.121 714.33 402.167 713.23C401.287 712.057 400.847 710.003 400.847 707.07C400.847 702.817 401.251 698.6 402.057 694.42C402.937 690.167 403.964 685.913 405.137 681.66C406.311 677.407 407.374 673.117 408.327 668.79C409.281 664.39 409.867 659.99 410.087 655.59C410.161 654.343 410.454 653.39 410.967 652.73C411.481 651.997 412.287 651.63 413.387 651.63C414.414 651.63 415.404 651.923 416.357 652.51C417.311 653.097 418.191 654.013 418.997 655.26L414.927 656.36C418.301 649.54 421.637 644.443 424.937 641.07C428.311 637.623 431.977 635.9 435.937 635.9C440.191 635.9 443.381 637.147 445.507 639.64C447.634 642.133 449.211 645.983 450.237 651.19C451.337 656.323 452.291 662.997 453.097 671.21C453.831 677.297 454.711 682.54 455.737 686.94C456.764 691.34 457.791 695.08 458.817 698.16C459.844 701.24 460.724 703.807 461.457 705.86C462.191 707.913 462.557 709.71 462.557 711.25C462.557 713.743 461.347 714.99 458.927 714.99ZM400.077 693.43C398.464 693.43 397.254 693.1 396.447 692.44C395.714 691.707 395.347 690.753 395.347 689.58C395.347 688.627 395.641 687.857 396.227 687.27C396.814 686.61 397.804 686.023 399.197 685.51C407.117 682.503 416.211 680.303 426.477 678.91C436.744 677.517 447.817 676.82 459.697 676.82C462.264 676.82 463.987 677.187 464.867 677.92C465.821 678.653 466.297 679.717 466.297 681.11C466.297 682.577 465.601 683.823 464.207 684.85C462.814 685.803 460.761 686.28 458.047 686.28C449.614 686.28 442.537 686.537 436.817 687.05C431.097 687.49 426.294 688.077 422.407 688.81C418.594 689.47 415.404 690.167 412.837 690.9C410.271 691.633 407.997 692.257 406.017 692.77C404.111 693.21 402.131 693.43 400.077 693.43ZM528.351 708.61C527.618 703.917 526.738 699.077 525.711 694.09C524.758 689.03 523.658 684.08 522.411 679.24C521.164 674.4 519.881 669.89 518.561 665.71C517.314 661.457 516.068 657.717 514.821 654.49C513.574 651.19 512.438 648.623 511.411 646.79L513.281 646.24C511.448 649.393 509.724 652.877 508.111 656.69C506.498 660.43 504.994 664.17 503.601 667.91C502.208 671.65 500.924 675.133 499.751 678.36C498.944 680.633 498.064 683.163 497.111 685.95C496.231 688.737 495.314 691.633 494.361 694.64C493.408 697.647 492.491 700.507 491.611 703.22C490.804 705.933 490.108 708.28 489.521 710.26L479.841 708.5C481.161 704.76 482.444 700.837 483.691 696.73C485.011 692.623 486.294 688.59 487.541 684.63C488.861 680.67 490.108 677.077 491.281 673.85C493.554 667.69 495.718 662.19 497.771 657.35C499.824 652.437 501.731 648.33 503.491 645.03C504.444 643.197 505.324 641.62 506.131 640.3C506.938 638.98 507.854 637.953 508.881 637.22C509.908 636.487 511.154 636.12 512.621 636.12C513.794 636.12 514.931 636.487 516.031 637.22C517.131 637.88 518.158 638.87 519.111 640.19C520.064 641.437 520.908 642.903 521.641 644.59C522.448 646.423 523.438 649.027 524.611 652.4C525.784 655.7 526.994 659.513 528.241 663.84C529.561 668.093 530.844 672.677 532.091 677.59C533.411 682.503 534.621 687.49 535.721 692.55C536.821 697.537 537.738 702.377 538.471 707.07L528.351 708.61ZM544.521 734.79C542.908 734.79 541.624 734.13 540.671 732.81C539.718 731.49 539.241 729.803 539.241 727.75C539.241 726.65 539.241 725.22 539.241 723.46C539.314 721.773 539.388 720.013 539.461 718.18C539.534 716.42 539.571 714.843 539.571 713.45L542.651 714.99C541.258 714.843 539.388 714.697 537.041 714.55C534.768 714.477 532.274 714.367 529.561 714.22C526.921 714.147 524.244 714.073 521.531 714C518.891 714 516.471 714 514.271 714C506.131 714 498.834 714.073 492.381 714.22C486.001 714.44 480.941 714.807 477.201 715.32L478.741 710.26C478.814 712.46 478.998 714.587 479.291 716.64C479.584 718.767 479.841 720.71 480.061 722.47C480.354 724.303 480.501 725.917 480.501 727.31C480.501 728.63 480.244 729.73 479.731 730.61C479.291 731.563 478.631 732.26 477.751 732.7C476.944 733.213 476.101 733.47 475.221 733.47C474.488 733.47 473.864 733.287 473.351 732.92C472.911 732.627 472.508 732.113 472.141 731.38C471.848 730.72 471.554 729.877 471.261 728.85C471.114 728.263 470.858 727.163 470.491 725.55C470.124 723.937 469.831 722.103 469.611 720.05C469.391 718.07 469.281 716.09 469.281 714.11C469.281 712.35 469.574 710.883 470.161 709.71C470.748 708.537 471.701 707.62 473.021 706.96C474.341 706.3 476.101 705.933 478.301 705.86C479.181 705.86 480.501 705.823 482.261 705.75C484.094 705.603 486.514 705.493 489.521 705.42C492.601 705.273 496.488 705.163 501.181 705.09C505.948 705.017 511.741 704.98 518.561 704.98C522.081 704.98 525.308 705.017 528.241 705.09C531.174 705.09 533.704 705.127 535.831 705.2C538.031 705.2 539.681 705.273 540.781 705.42C543.201 705.713 545.071 706.227 546.391 706.96C547.711 707.693 548.628 708.72 549.141 710.04C549.728 711.36 550.021 713.047 550.021 715.1C550.021 717.08 549.948 719.023 549.801 720.93C549.728 722.91 549.618 724.633 549.471 726.1C549.324 727.567 549.214 728.667 549.141 729.4C548.921 731.453 548.334 732.847 547.381 733.58C546.501 734.387 545.548 734.79 544.521 734.79ZM559.806 648.44C558.119 648.44 556.799 648.037 555.846 647.23C554.966 646.423 554.526 645.36 554.526 644.04C554.526 643.013 554.929 642.06 555.736 641.18C556.543 640.227 557.899 639.603 559.806 639.31C563.326 638.723 567.433 638.21 572.126 637.77C576.819 637.33 581.696 637 586.756 636.78C591.889 636.487 596.839 636.34 601.606 636.34C604.026 636.34 605.713 636.597 606.666 637.11C607.619 637.623 608.096 638.577 608.096 639.97C608.096 641.877 607.069 643.38 605.016 644.48C602.963 645.58 600.139 646.13 596.546 646.13C591.779 646.13 587.673 646.203 584.226 646.35C580.853 646.497 577.993 646.68 575.646 646.9C573.299 647.12 571.246 647.377 569.486 647.67C567.726 647.89 566.076 648.073 564.536 648.22C563.069 648.367 561.493 648.44 559.806 648.44ZM582.136 707.84C580.303 707.84 578.799 707.07 577.626 705.53C576.453 703.99 575.866 701.937 575.866 699.37C575.866 692.99 576.013 686.757 576.306 680.67C576.673 674.583 577.003 668.753 577.296 663.18C577.589 657.607 577.736 652.547 577.736 648C577.736 646.24 577.993 644.92 578.506 644.04C579.093 643.087 580.046 642.61 581.366 642.61C583.053 642.61 584.483 643.417 585.656 645.03C586.903 646.57 587.526 648.477 587.526 650.75C587.526 654.05 587.379 658.34 587.086 663.62C586.793 668.9 586.463 674.95 586.096 681.77C585.803 688.517 585.656 695.85 585.656 703.77C585.656 706.483 584.483 707.84 582.136 707.84ZM561.676 715.21C559.183 715.21 557.349 714.77 556.176 713.89C555.076 712.937 554.526 711.727 554.526 710.26C554.526 709.233 554.819 708.353 555.406 707.62C556.066 706.887 557.093 706.447 558.486 706.3C561.199 706.007 563.876 705.787 566.516 705.64C569.156 705.42 571.833 705.237 574.546 705.09C577.259 704.943 580.046 704.833 582.906 704.76C585.766 704.687 588.699 704.65 591.706 704.65C594.786 704.577 597.976 704.54 601.276 704.54C603.109 704.54 604.503 704.723 605.456 705.09C606.409 705.457 607.069 705.933 607.436 706.52C607.876 707.033 608.096 707.693 608.096 708.5C608.096 709.967 607.363 711.25 605.896 712.35C604.503 713.45 602.156 714 598.856 714C593.209 714 587.929 714.073 583.016 714.22C578.176 714.44 573.923 714.66 570.256 714.88C566.663 715.1 563.803 715.21 561.676 715.21ZM618.189 714.77C617.383 714.77 616.686 714.55 616.099 714.11C615.586 713.67 615.183 713.12 614.889 712.46C614.669 711.8 614.559 711.14 614.559 710.48C614.559 709.527 615.329 708.353 616.869 706.96C618.483 705.493 620.536 703.807 623.029 701.9C625.596 699.993 628.309 697.757 631.169 695.19C633.883 692.697 636.376 690.24 638.649 687.82C640.923 685.327 643.159 682.723 645.359 680.01L646.349 684.08C641.143 683.2 636.706 681.917 633.039 680.23C629.373 678.47 626.403 676.417 624.129 674.07C621.929 671.723 620.316 669.193 619.289 666.48C618.336 663.767 617.859 661.053 617.859 658.34C617.859 655.7 618.556 653.06 619.949 650.42C621.343 647.707 623.469 645.25 626.329 643.05C629.263 640.85 632.929 639.09 637.329 637.77C641.803 636.377 647.083 635.68 653.169 635.68C656.469 635.68 659.403 636.01 661.969 636.67C664.536 637.33 666.553 638.467 668.019 640.08C669.559 641.693 670.329 643.967 670.329 646.9C670.329 647.78 670.219 649.54 669.999 652.18C669.853 654.747 669.633 657.79 669.339 661.31C669.119 664.83 668.899 668.533 668.679 672.42C668.533 676.233 668.459 679.9 668.459 683.42C668.459 687.16 668.643 690.9 669.009 694.64C669.376 698.38 669.743 701.643 670.109 704.43C670.476 707.217 670.659 709.05 670.659 709.93C670.659 710.737 670.513 711.543 670.219 712.35C669.999 713.157 669.596 713.817 669.009 714.33C668.423 714.843 667.689 715.1 666.809 715.1C665.123 715.1 663.729 714.367 662.629 712.9C661.529 711.433 660.759 709.563 660.319 707.29C660.246 706.85 660.063 705.493 659.769 703.22C659.476 700.873 659.219 698.05 658.999 694.75C658.779 691.377 658.669 687.967 658.669 684.52C658.669 680.707 658.743 676.71 658.889 672.53C659.036 668.277 659.219 664.17 659.439 660.21C659.733 656.25 659.989 652.803 660.209 649.87C660.503 646.863 660.723 644.737 660.869 643.49L662.079 648C660.906 647.34 659.403 646.753 657.569 646.24C655.809 645.653 653.206 645.36 649.759 645.36C647.486 645.36 645.066 645.617 642.499 646.13C640.006 646.57 637.659 647.34 635.459 648.44C633.259 649.467 631.463 650.823 630.069 652.51C628.676 654.197 627.979 656.177 627.979 658.45C627.979 663.07 630.033 667.03 634.139 670.33C638.319 673.63 644.149 675.903 651.629 677.15C653.023 677.37 653.939 677.81 654.379 678.47C654.893 679.13 655.149 679.973 655.149 681C655.149 681.733 654.563 682.943 653.389 684.63C652.289 686.243 650.859 688.077 649.099 690.13C647.413 692.11 645.616 694.09 643.709 696.07C641.876 697.977 640.153 699.663 638.539 701.13C635.973 703.403 633.369 705.603 630.729 707.73C628.163 709.857 625.779 711.58 623.579 712.9C621.379 714.147 619.583 714.77 618.189 714.77ZM686.699 666.26C685.526 666.26 684.573 665.93 683.839 665.27C683.106 664.61 682.739 663.693 682.739 662.52C682.739 661.053 683.143 659.44 683.949 657.68C684.756 655.847 685.709 653.793 686.809 651.52C687.983 649.247 689.046 646.643 689.999 643.71C691.026 640.703 691.759 637.33 692.199 633.59C692.493 630.29 693.079 627.98 693.959 626.66C694.913 625.34 696.196 624.68 697.809 624.68C699.569 624.68 700.999 625.267 702.099 626.44C703.273 627.613 703.859 629.007 703.859 630.62C703.859 632.673 703.566 635.02 702.979 637.66C702.466 640.3 701.696 643.05 700.669 645.91C699.643 648.77 698.469 651.557 697.149 654.27C695.903 656.91 694.546 659.33 693.079 661.53C691.906 663.143 690.806 664.353 689.779 665.16C688.826 665.893 687.799 666.26 686.699 666.26ZM714.749 667.47C713.576 667.47 712.623 667.177 711.889 666.59C711.229 666.003 710.899 665.16 710.899 664.06C710.899 662.74 711.193 661.42 711.779 660.1C712.439 658.707 713.209 657.167 714.089 655.48C714.969 653.72 715.813 651.593 716.619 649.1C717.426 646.607 718.013 643.6 718.379 640.08C718.746 637 719.369 635.02 720.249 634.14C721.129 633.187 722.156 632.71 723.329 632.71C725.016 632.71 726.373 633.223 727.399 634.25C728.499 635.277 729.049 636.89 729.049 639.09C729.049 642.463 728.389 646.277 727.069 650.53C725.823 654.71 723.806 658.89 721.019 663.07C719.993 664.683 718.966 665.82 717.939 666.48C716.913 667.14 715.849 667.47 714.749 667.47Z" fill="white"/>
</g>
<g filter="url(#filter3_i_4_19)">
<path d="M540.249 40.9556C553.734 36.3989 594.105 19.8284 604.665 2.43234C614.779 -14.2282 608.565 60.157 608.565 60.157C608.565 60.157 605.301 101.213 595.519 125.647C585.994 149.44 578.207 162.603 560.417 182.132C540.714 203.76 524.599 211.773 498.988 227.541C451.093 257.028 416.949 261.925 364.352 283.892C336.589 295.487 300.954 313.555 293.248 313.555C285.543 313.555 290.741 284.057 299.628 268.05C310.082 249.22 345.126 233.166 345.126 233.166C345.126 233.166 373.324 219.287 391.802 211.13C408.35 203.826 418.183 197.431 425.888 194.241C433.594 191.052 435.851 186.03 433.594 182.132C428.329 173.042 403.592 179.485 403.592 179.485L377.836 187.261L332.59 207.766C332.59 207.766 306.249 224.459 291.209 237.104C272.298 253.003 247.807 282.215 247.807 282.215L209.279 334.162C209.279 334.162 176.973 381.897 162.083 396.589C147.194 411.282 134.632 415.964 131.262 405.028C127.891 394.092 127.267 390.301 135.935 359.771C144.604 329.241 157.999 302.352 157.999 302.352C157.999 302.352 175.33 270.383 189.005 251.288C203.968 230.395 231.89 200.708 231.89 200.708L268.694 165.346C268.694 165.346 305.731 135.165 332.59 117.707C366.417 95.7201 387.528 85.6313 425.888 70.9503C468.714 54.5604 526.765 45.5123 540.249 40.9556Z" fill="#014AAB"/>
</g>
<defs>
<filter id="filter0_d_4_19" x="133.362" y="66.6382" width="107.861" height="77.8899" filterUnits="userSpaceOnUse" color-interpolation-filters="sRGB">
<feFlood flood-opacity="0" result="BackgroundImageFix"/>
<feColorMatrix in="SourceAlpha" type="matrix" values="0 0 0 0 0 0 0 0 0 0 0 0 0 0 0 0 0 0 127 0" result="hardAlpha"/>
<feOffset dx="9" dy="10"/>
<feGaussianBlur stdDeviation="1.5"/>
<feComposite in2="hardAlpha" operator="out"/>
<feColorMatrix type="matrix" values="0 0 0 0 0 0 0 0 0 0 0 0 0 0 0 0 0 0 0.25 0"/>
<feBlend mode="normal" in2="BackgroundImageFix" result="effect1_dropShadow_4_19"/>
<feBlend mode="normal" in="SourceGraphic" in2="effect1_dropShadow_4_19" result="shape"/>
</filter>
<filter id="filter1_i_4_19" x="116.607" y="252.228" width="467.934" height="455.291" filterUnits="userSpaceOnUse" color-interpolation-filters="sRGB">
<feFlood flood-opacity="0" result="BackgroundImageFix"/>
<feBlend mode="normal" in="SourceGraphic" in2="BackgroundImageFix" result="shape"/>
<feColorMatrix in="SourceAlpha" type="matrix" values="0 0 0 0 0 0 0 0 0 0 0 0 0 0 0 0 0 0 127 0" result="hardAlpha"/>
<feOffset dx="-2" dy="10"/>
<feGaussianBlur stdDeviation="10"/>
<feComposite in2="hardAlpha" operator="arithmetic" k2="-1" k3="1"/>
<feColorMatrix type="matrix" values="0 0 0 0 0 0 0 0 0 0 0 0 0 0 0 0 0 0 0.25 0"/>
<feBlend mode="normal" in2="shape" result="effect1_innerShadow_4_19"/>
</filter>
<filter id="filter2_d_4_19" x="266.71" y="624.68" width="474.339" height="123.11" filterUnits="userSpaceOnUse" color-interpolation-filters="sRGB">
<feFlood flood-opacity="0" result="BackgroundImageFix"/>
<feColorMatrix in="SourceAlpha" type="matrix" values="0 0 0 0 0 0 0 0 0 0 0 0 0 0 0 0 0 0 127 0" result="hardAlpha"/>
<feOffset dx="9" dy="10"/>
<feGaussianBlur stdDeviation="1.5"/>
<feComposite in2="hardAlpha" operator="out"/>
<feColorMatrix type="matrix" values="0 0 0 0 0 0 0 0 0 0 0 0 0 0 0 0 0 0 0.25 0"/>
<feBlend mode="normal" in2="BackgroundImageFix" result="effect1_dropShadow_4_19"/>
<feBlend mode="normal" in="SourceGraphic" in2="effect1_dropShadow_4_19" result="shape"/>
</filter>
<filter id="filter3_i_4_19" x="126.952" y="0" width="483.502" height="421.038" filterUnits="userSpaceOnUse" color-interpolation-filters="sRGB">
<feFlood flood-opacity="0" result="BackgroundImageFix"/>
<feBlend mode="normal" in="SourceGraphic" in2="BackgroundImageFix" result="shape"/>
<feColorMatrix in="SourceAlpha" type="matrix" values="0 0 0 0 0 0 0 0 0 0 0 0 0 0 0 0 0 0 127 0" result="hardAlpha"/>
<feOffset dx="-2" dy="10"/>
<feGaussianBlur stdDeviation="10"/>
<feComposite in2="hardAlpha" operator="arithmetic" k2="-1" k3="1"/>
<feColorMatrix type="matrix" values="0 0 0 0 0 0 0 0 0 0 0 0 0 0 0 0 0 0 0.25 0"/>
<feBlend mode="normal" in2="shape" result="effect1_innerShadow_4_19"/>
</filter>
</defs>
</svg>
